<svg xmlns="http://www.w3.org/2000/svg" width="1440" height="900" fill="none"><g clip-path="url(#a)"><path fill="#fff" d="M0 0h1440v900H0z"/><g clip-path="url(#b)"><path fill="#6A74A5" d="M172 403.2c-1 0-1.7-.2-2.3-.5-.7-.2-1.2-.6-1.5-1-.3-.5-.5-1-.5-1.5v-.2l.3-.2h.8l.3.1.2.3c0 .2.1.5.3.7.3.3.5.5 1 .7l1.4.2c1 0 1.6-.2 2-.5.4-.3.7-.7.7-1.3 0-.4-.2-.7-.4-.9l-1-.6-1.9-.6-1.9-.7a3 3 0 0 1-1.1-1c-.3-.4-.4-1-.4-1.5 0-.6.1-1.1.5-1.6.3-.4.7-.8 1.3-1a5 5 0 0 1 3.9-.1 3.5 3.5 0 0 1 2 1.6l.2 1v.2h-1.4l-.2-.2c0-.5-.3-.9-.7-1.2-.5-.3-1-.4-1.7-.4s-1.2.1-1.7.4c-.4.3-.6.7-.6 1.2 0 .4 0 .7.3 1l1 .6 1.7.6c.8.2 1.5.4 2 .7.6.3 1 .6 1.2 1 .3.4.4.9.4 1.5s-.1 1.2-.5 1.7c-.3.5-.8.8-1.5 1-.6.3-1.3.5-2.2.5Zm6.5-.2-.3-.1v-8.1l.3-.1h1l.1.3V403l-.3.1h-.8Zm-.1-9.9h-.3v-1.5h1.5l.2.3v.9s0 .2-.2.2l-.2.1h-1Zm7 13.4c-.7 0-1.3 0-1.8-.3-.4-.2-.8-.4-1-.7-.3-.2-.5-.5-.6-.8l-.2-.6.1-.3.3-.1h1l.1.3.3.6.6.5 1.1.2c.5 0 1 0 1.3-.2.3-.1.6-.4.8-.7.2-.4.2-.8.2-1.4v-1c-.2.2-.5.5-1 .7-.4.3-.9.4-1.5.4s-1.1-.1-1.6-.3a3 3 0 0 1-1-.9 4 4 0 0 1-.6-1.2 6.3 6.3 0 0 1-.3-2.3l.3-1.5.6-1.2c.3-.4.6-.7 1-.9.5-.2 1-.3 1.6-.3a3 3 0 0 1 1.6.4c.4.2.7.5 1 .9v-1l.4-.1h1v8.1c0 .7 0 1.4-.3 2-.2.5-.6 1-1.2 1.2-.5.4-1.3.5-2.2.5Zm0-4.7c.5 0 1-.1 1.3-.4.3-.2.5-.5.7-1l.2-1a7.6 7.6 0 0 0 0-1.2 3 3 0 0 0-.2-1c-.2-.5-.4-.8-.7-1a2 2 0 0 0-1.3-.4 2 2 0 0 0-1.3.4 2 2 0 0 0-.7 1l-.2 1.2v.8c0 .5 0 .9.2 1.3l.7 1c.3.2.8.3 1.3.3Zm6.5 1.2-.2-.1-.1-.3v-7.8l.3-.1h1l.1.3v.8l1-1c.5-.2 1-.3 1.7-.3s1.3.2 1.8.5.8.7 1 1.2c.3.6.5 1.2.5 2v4.4l-.1.3-.3.1h-.8l-.3-.1v-4.7c0-.7-.3-1.3-.6-1.7-.4-.5-1-.7-1.6-.7-.7 0-1.2.2-1.6.7-.4.4-.6 1-.6 1.7v4.4l-.1.3-.3.1h-.8Zm13.7 0-.3-.1-.1-.3v-7.8l.4-.1h1v8.2l-.3.1h-.7Zm-.2-9.9h-.2l-.1-.3v-1.2h1.6l.1.3v.9l-.1.2-.3.1h-1Zm4 9.9-.2-.1-.1-.3v-7.8l.3-.1h1l.1.3v.8l1-1c.5-.2 1-.3 1.7-.3s1.3.2 1.8.5.8.7 1 1.2c.3.6.5 1.2.5 2v4.4l-.1.3-.3.1h-.8l-.3-.1v-4.7c0-.7-.3-1.3-.6-1.7-.4-.5-1-.7-1.6-.7-.7 0-1.2.2-1.6.7-.4.4-.6 1-.6 1.7v4.4l-.1.3-.3.1h-.8Zm15.6.2c-.5 0-1-.1-1.5-.4l-1-.8a2 2 0 0 1-.4-1.3c0-.7.3-1.3.9-1.7.6-.5 1.4-.7 2.3-.9l2.4-.3v-.5c0-.5-.1-.9-.4-1.2-.3-.3-.8-.4-1.5-.4-.4 0-.8 0-1.1.3-.3.2-.5.4-.6.7-.1.2-.2.3-.4.3h-.7l-.3-.1v-.3l.1-.6.6-.7 1-.5a4 4 0 0 1 1.5-.3c.6 0 1.1.1 1.6.3a2.5 2.5 0 0 1 1.5 1.6c.2.3.2.7.2 1v5.2l-.1.3-.3.1h-.7l-.3-.1v-1l-.6.6a3.3 3.3 0 0 1-2.2.7Zm.3-1.2c.5 0 .9-.1 1.2-.3.4-.2.7-.5.9-.9.2-.4.3-.9.3-1.5v-.4l-1.8.2c-.8.2-1.4.3-1.8.6-.3.2-.5.5-.5 1 0 .2 0 .5.2.7l.7.4.8.2Zm6.6 1-.3-.1v-8.1l.3-.1h1l.1.3v.8l1-1c.5-.2 1-.3 1.7-.3s1.3.2 1.7.5c.5.3.9.7 1.1 1.2.3.6.4 1.2.4 2v4.7l-.3.1h-.8l-.3-.1-.1-.3v-4.4c0-.7-.2-1.3-.6-1.7-.3-.5-.9-.7-1.6-.7-.6 0-1.2.2-1.6.7-.4.4-.6 1-.6 1.7v4.7l-.3.1h-.8Zm12.4.2c-.6 0-1.1-.1-1.6-.3a3 3 0 0 1-1.6-2.1 6.4 6.4 0 0 1-.3-2 8.3 8.3 0 0 1 .3-1.9l.6-1.2c.3-.4.6-.7 1-.9.5-.2 1-.3 1.6-.3.6 0 1.1.1 1.5.4.4.2.8.5 1 .8V392l.1-.2.3-.2h.8s.2 0 .2.2l.2.2v10.6c0 .1 0 .2-.2.3l-.2.1h-.7l-.3-.1-.1-.3v-.6l-1 .8c-.5.2-1 .4-1.6.4Zm.3-1.3c.5 0 1-.2 1.3-.4.3-.2.5-.6.7-1 .2-.3.2-.7.2-1.1a9.7 9.7 0 0 0 0-1.2c0-.4 0-.8-.2-1.1-.2-.4-.4-.7-.8-1a2 2 0 0 0-1.2-.3 2 2 0 0 0-1.3.4 2 2 0 0 0-.7 1l-.2 1.2v.9c0 .5 0 .9.2 1.3.1.4.4.7.7 1 .3.1.7.3 1.3.3Zm13 1.3c-.7 0-1.2-.1-1.6-.3l-1-.5-.7-.6-.2-.6s0-.2.2-.2l.2-.1H255.4l.1.1.5.5.6.3 1 .2c.5 0 1-.1 1.3-.3.3-.2.5-.5.5-1 0-.2 0-.4-.2-.6l-.8-.4-1.5-.4c-.6-.2-1.1-.3-1.5-.6a2 2 0 0 1-.8-.7c-.2-.3-.2-.7-.2-1 0-.5 0-.9.3-1.2l1-1c.5-.2 1-.3 1.8-.3.5 0 1 0 1.4.2a3.2 3.2 0 0 1 1.5 1.2c.2.2.2.3.2.5v.2l-.3.1H259.4l-.1-.1-.4-.4c-.1-.2-.3-.3-.6-.4l-.8-.1c-.6 0-1 .1-1.2.3a1 1 0 0 0-.4.9l.1.5c.1.2.4.3.7.4l1.5.5c.7.1 1.2.3 1.6.5l.9.8a2.2 2.2 0 0 1-.1 2.3c-.3.4-.7.7-1.2 1-.5.2-1.1.3-1.9.3Zm8.4-.2c-.6 0-1-.1-1.4-.3a2 2 0 0 1-.8-1 4 4 0 0 1-.3-1.5V396h-1.2l-.3-.1-.1-.3v-.8l.4-.1h1.2V392l.1-.2.3-.2h.7c.1 0 .2 0 .3.2l.1.2v2.7h2.2l.2.3v.6c0 .1 0 .2-.2.3H265v4.2c0 .5 0 .9.3 1.2.1.2.4.4.9.4h1l.2.1.1.3v.5l-.1.3-.3.1h-1Zm5.4.2c-.6 0-1-.1-1.5-.4-.4-.2-.8-.5-1-.8a2 2 0 0 1-.4-1.3c0-.7.3-1.3.8-1.7.6-.5 1.4-.7 2.4-.9l2.4-.3v-.5c0-.5-.2-.9-.5-1.2-.3-.3-.7-.4-1.4-.4-.5 0-.9 0-1.2.3-.3.2-.5.4-.6.7 0 .2-.2.3-.3.3h-.7l-.3-.1V396l.7-.7c.2-.2.5-.4 1-.5a4 4 0 0 1 1.4-.3c.7 0 1.2.1 1.6.3a2.5 2.5 0 0 1 1.6 1.6l.2 1v5.2l-.1.3-.3.1h-.7l-.3-.1-.1-.3v-.7a3 3 0 0 1-.6.6 3.2 3.2 0 0 1-2.1.7Zm.3-1.2 1.2-.3c.4-.2.6-.5.8-.9.3-.4.4-.9.4-1.5v-.4l-1.9.2c-.7.2-1.3.3-1.7.6-.4.2-.6.5-.6 1 0 .2.1.5.3.7l.7.4.8.2Zm6.5 1-.2-.1-.1-.3v-7.8l.3-.1h1l.2.4v.7c.2-.4.5-.7.8-.8a3 3 0 0 1 1.4-.3H282.5v1.3h-1.3c-.5 0-1 .2-1.3.6-.3.3-.5.8-.5 1.3v4.7l-.1.3-.3.1h-.8Zm9 0c-.6 0-1-.1-1.5-.3a2 2 0 0 1-.8-1 4 4 0 0 1-.2-1.5V396h-1.3l-.3-.1V394.8l.3-.1h1.3V391.8l.3-.2h.8c.1 0 .2 0 .2.2l.2.2v2.7h2.2l.1.3v.6l-.1.3h-2.3v4.2c0 .5.1.9.3 1.2.2.2.5.4 1 .4h.9l.3.1v1.1l-.3.1h-1.1Zm7.3 0-.3-.1v-8.1l.3-.1h1V395.7l1-.8c.4-.2.8-.3 1.4-.3 1.2 0 2 .5 2.5 1.5.3-.5.6-.8 1-1 .6-.3 1-.5 1.7-.5.5 0 1 .1 1.5.4.4.3.8.6 1 1.2.3.5.5 1.1.5 2v4.5c0 .1 0 .2-.2.3l-.2.1h-.8l-.2-.1-.1-.3v-4.4c0-.6-.1-1.1-.3-1.5l-.7-.7-1-.2a2 2 0 0 0-.8.2l-.7.7a3 3 0 0 0-.3 1.5v4.7l-.3.1h-.8l-.3-.1v-4.7c0-.6-.1-1.1-.3-1.5l-.7-.7a2 2 0 0 0-1.8 0l-.7.7a3 3 0 0 0-.3 1.4v4.8l-.3.1h-.8Zm16.2.2c-.6 0-1-.1-1.5-.4-.4-.2-.8-.5-1-.8a2 2 0 0 1-.5-1.3c0-.7.3-1.3 1-1.7.5-.5 1.3-.7 2.3-.9l2.4-.3v-.5c0-.5-.2-.9-.5-1.2-.3-.3-.7-.4-1.4-.4-.5 0-.9 0-1.2.3-.3.2-.5.4-.6.7 0 .2-.2.3-.3.3h-.7l-.3-.1V396l.7-.7c.2-.2.5-.4 1-.5a4 4 0 0 1 1.4-.3c.6 0 1.2.1 1.6.3a2.5 2.5 0 0 1 1.6 1.6l.2 1v5.2l-.1.3-.3.1h-.7l-.3-.1-.1-.3v-.7a3 3 0 0 1-.6.6 3.2 3.2 0 0 1-2.1.7Zm.3-1.2 1.2-.3c.4-.2.6-.5.8-.9.3-.4.4-.9.4-1.5v-.4l-1.9.2c-.7.2-1.3.3-1.7.6-.4.2-.6.5-.6 1 0 .2.1.5.3.7l.6.4.9.2Zm6.5 1-.2-.1-.1-.3v-7.8l.3-.1h1l.2.3v.8c.2-.4.6-.7 1-1 .4-.2 1-.3 1.6-.3.7 0 1.3.2 1.8.5s.8.7 1 1.2c.3.6.5 1.2.5 2v4.4l-.1.3-.3.1h-.8l-.3-.1v-4.7c0-.7-.2-1.3-.6-1.7-.4-.5-.9-.7-1.6-.7-.7 0-1.2.2-1.6.7-.4.4-.6 1-.6 1.7v4.4l-.1.3-.3.1h-.8Zm11.7.2c-.5 0-1-.1-1.5-.4-.4-.2-.8-.5-1-.8a2 2 0 0 1-.4-1.3c0-.7.3-1.3.9-1.7.6-.5 1.4-.7 2.3-.9l2.4-.3v-.5c0-.5-.2-.9-.5-1.2-.2-.3-.7-.4-1.4-.4-.5 0-.8 0-1.1.3l-.7.7c0 .2-.1.3-.3.3h-.7l-.3-.1v-.3l.1-.6.6-.7 1-.5a4 4 0 0 1 1.4-.3c.7 0 1.2.1 1.7.3a2.5 2.5 0 0 1 1.5 1.6l.2 1v5.2l-.1.3-.3.1h-.7l-.3-.1v-1l-.6.6a3.3 3.3 0 0 1-2.2.7Zm.3-1.2c.5 0 .9-.1 1.2-.3.4-.2.7-.5.9-.9.2-.4.3-.9.3-1.5v-.4l-1.9.2c-.7.2-1.3.3-1.7.6-.4.2-.5.5-.5 1 0 .2 0 .5.2.7l.7.4.8.2Zm9.6 4.5c-.7 0-1.3 0-1.8-.3-.4-.2-.8-.4-1-.7-.3-.2-.5-.5-.6-.8l-.2-.6v-.3l.4-.1h1l.1.3.3.6.6.5 1.1.2c.5 0 1 0 1.3-.2.3-.1.6-.4.8-.7l.2-1.4v-1l-1 .7c-.4.3-1 .4-1.5.4-.6 0-1.2-.1-1.6-.3a3 3 0 0 1-1-.9 4 4 0 0 1-.6-1.2 6.3 6.3 0 0 1-.3-2.3l.3-1.5c0-.4.3-.8.6-1.2.2-.4.6-.7 1-.9.4-.2 1-.3 1.6-.3a3 3 0 0 1 1.5.4c.5.2.8.5 1 .9v-.7l.2-.3.2-.1h1.1v8.1c0 .7 0 1.4-.3 2-.2.5-.6 1-1.2 1.2-.5.4-1.3.5-2.2.5Zm0-4.7c.5 0 1-.1 1.3-.4.3-.2.5-.5.7-1l.2-1a8.3 8.3 0 0 0 0-1.2 3 3 0 0 0-.2-1c-.2-.5-.4-.8-.7-1a2 2 0 0 0-1.3-.4 2 2 0 0 0-1.3.4 2 2 0 0 0-.7 1l-.2 1.2v.8c0 .5 0 .9.2 1.3.1.4.4.7.7 1 .3.2.7.3 1.3.3Zm6.5 1.2-.3-.1v-8.1l.3-.1h1l.1.3V403l-.3.1h-.8Zm-.1-9.9h-.3v-1.5h1.6v1.4l-.3.1h-1Zm4 9.9-.3-.1v-8.1l.3-.1h1l.1.3v.8l1-1c.5-.2 1-.3 1.7-.3s1.3.2 1.7.5c.5.3.9.7 1.1 1.2.3.6.4 1.2.4 2v4.7l-.3.1h-.8l-.3-.1-.1-.3v-4.4c0-.7-.2-1.3-.6-1.7-.3-.5-.8-.7-1.5-.7s-1.2.2-1.6.7c-.4.4-.6 1-.6 1.7v4.4c0 .1 0 .2-.2.3l-.2.1h-.8Zm12.7 3.5c-.7 0-1.3 0-1.8-.3-.4-.2-.8-.4-1-.7-.3-.2-.5-.5-.6-.8l-.2-.6.1-.3.3-.1h1l.2.3.2.6.6.5 1.2.2c.5 0 .9 0 1.2-.2.4-.1.6-.4.8-.7.2-.4.3-.8.3-1.4v-1l-1 .7c-.5.3-1 .4-1.6.4-.6 0-1.1-.1-1.6-.3a3 3 0 0 1-1-.9 4 4 0 0 1-.6-1.2 6.3 6.3 0 0 1-.2-2.3c0-.5 0-1 .2-1.5l.6-1.2c.3-.4.6-.7 1-.9.5-.2 1-.3 1.6-.3a3 3 0 0 1 1.6.4c.4.2.7.5 1 .9v-.7l.1-.3.3-.1h1v8.1c0 .7 0 1.4-.3 2-.2.5-.6 1-1.2 1.2-.5.4-1.2.5-2.2.5Zm0-4.7c.5 0 1-.1 1.3-.4.3-.2.6-.5.7-1 .2-.3.2-.7.3-1a8.3 8.3 0 0 0 0-1.2 3 3 0 0 0-.3-1c-.1-.5-.4-.8-.7-1a2 2 0 0 0-1.3-.4 2 2 0 0 0-1.3.4 2 2 0 0 0-.7 1l-.2 1.2v.8c0 .5 0 .9.2 1.3l.7 1c.3.2.8.3 1.3.3Zm11.1 4.2h-.2l-.1-.3V405.4l1.3-2.9-3-7.2-.1-.3a.3.3 0 0 1 .3-.3h1l.2.3 2.4 5.8 2.5-5.8.1-.2.3-.1h1v.6l-4.5 10.5-.2.2h-1Zm10.5-2.8a4 4 0 0 1-2-.5c-.6-.3-1-.7-1.3-1.3-.3-.5-.4-1.2-.5-1.9a11.8 11.8 0 0 1 0-1.3c0-.8.2-1.4.5-2 .3-.5.7-1 1.3-1.2a4 4 0 0 1 2-.5 4 4 0 0 1 2 .5c.6.3 1 .7 1.3 1.3.3.5.4 1.1.5 1.9a11.3 11.3 0 0 1 0 1.3c0 .7-.2 1.4-.5 2-.3.5-.7.9-1.3 1.2a4 4 0 0 1-2 .5Zm0-1.3a2 2 0 0 0 1.6-.6c.4-.4.6-1 .6-1.9a9.2 9.2 0 0 0 0-1.2c0-.8-.2-1.4-.6-1.8a2 2 0 0 0-1.6-.6c-.7 0-1.2.2-1.6.6-.4.4-.6 1-.6 1.8a9.2 9.2 0 0 0 0 1.2c0 .9.2 1.5.6 1.9.4.4 1 .6 1.6.6Zm8.9 1.3c-.7 0-1.3-.2-1.8-.5a3 3 0 0 1-1-1.3c-.3-.5-.4-1.1-.4-1.8v-4.8l.4-.1h1l.1.3v4.5c0 1.6.7 2.4 2.1 2.4a2 2 0 0 0 1.6-.7c.4-.4.6-1 .6-1.7V395l.1-.2.3-.1h1l.1.3V403l-.3.1h-.8l-.3-.1v-1l-1.1 1c-.4.1-1 .3-1.6.3Zm6.9-.2-.3-.1-.1-.3v-7.5l.1-.3.3-.1h1v1.1c.3-.4.6-.7 1-.8a3 3 0 0 1 1.3-.3H403.8l.1.3v1h-1.3c-.6 0-1 .2-1.4.6-.3.3-.5.8-.5 1.3v5l-.3.1h-.8Zm10.1 0-.2-.1-.1-.3V396H408l-.3-.1V394.8l.3-.1h1.4v-.8c0-.6 0-1 .2-1.4.2-.5.5-.8.9-1 .4-.2 1-.3 1.6-.3h1.2l.1.3v.8l-.3.1h-1c-.5 0-.8.2-1 .4a2 2 0 0 0-.3 1.2v.7h2.4v1.2h-2.3v6.7c0 .1 0 .2-.2.3l-.2.1h-.8Zm8 .2a3 3 0 0 1-2.8-1.7c-.2-.6-.3-1.2-.3-2V395l.1-.2.3-.1h1l.1.3v4.5c0 1.6.7 2.4 2.1 2.4a2 2 0 0 0 1.6-.7c.4-.4.6-1 .6-1.7V395l.1-.2.3-.1h1l.1.3V403l-.3.1h-.8l-.2-.1-.1-.3v-.7l-1.1 1c-.4.1-1 .3-1.6.3Zm7-.2-.3-.1v-8.1l.3-.1h1l.1.3v.8l1-1c.5-.2 1-.3 1.7-.3s1.2.2 1.7.5.9.7 1.1 1.2c.3.6.4 1.2.4 2v4.7l-.4.1h-.8l-.2-.1-.1-.3v-4.4c0-.7-.2-1.3-.6-1.7-.3-.5-.9-.7-1.6-.7-.6 0-1.2.2-1.6.7-.4.4-.6 1-.6 1.7v4.7l-.3.1h-.8Zm12.4.2c-.6 0-1.1-.1-1.6-.3a3 3 0 0 1-1-.9 4 4 0 0 1-.6-1.2 6.4 6.4 0 0 1-.3-2 7.5 7.5 0 0 1 .3-1.9l.6-1.2c.3-.4.6-.7 1-.9.5-.2 1-.3 1.6-.3.6 0 1.1.1 1.5.4.4.2.8.5 1 .8V392l.1-.2.3-.2h.8s.2 0 .2.2l.1.2V403l-.3.1h-.7l-.3-.1-.1-.3v-.6l-1 .8c-.5.2-1 .4-1.6.4Zm.3-1.3c.5 0 1-.2 1.3-.4.3-.2.5-.6.7-1l.2-1.1a9.7 9.7 0 0 0 0-1.2c0-.4 0-.8-.2-1.1-.2-.4-.4-.7-.8-1a2 2 0 0 0-1.2-.3 2 2 0 0 0-1.3.4 2 2 0 0 0-.7 1l-.2 1.2v.9c0 .5 0 .9.2 1.3.1.4.4.7.7 1 .3.1.7.3 1.3.3Zm6.5 1.1-.3-.1v-8.1l.3-.1h1l.1.3V403l-.3.1h-.8Zm-.1-9.9h-.3l-.1-.3v-.9l.1-.3h1.5l.1.3v1.1l-.3.1h-1Zm4 9.9-.3-.1-.1-.3V395l.1-.2.3-.1h1v1.1l1.1-1c.5-.2 1-.3 1.7-.3s1.2.2 1.7.5.9.7 1.1 1.2c.3.6.4 1.2.4 2v4.4l-.1.3-.3.1h-.8l-.2-.1-.1-.3v-4.4c0-.7-.2-1.3-.6-1.7-.3-.5-.9-.7-1.6-.7-.6 0-1.2.2-1.6.7-.4.4-.6 1-.6 1.7v4.7l-.3.1h-.8Zm12.7 3.5c-.7 0-1.3 0-1.8-.3-.4-.2-.8-.4-1-.7-.3-.2-.5-.5-.6-.8l-.2-.6v-.3l.4-.1h1l.1.3.3.6.6.5 1.1.2c.5 0 1 0 1.3-.2.3-.1.6-.4.8-.7l.2-1.4v-1l-1 .7c-.4.3-1 .4-1.5.4-.6 0-1.1-.1-1.6-.3a3 3 0 0 1-1-.9 4 4 0 0 1-.6-1.2 6.3 6.3 0 0 1-.3-2.3l.3-1.5.6-1.2c.2-.4.6-.7 1-.9.5-.2 1-.3 1.6-.3a3 3 0 0 1 1.5.4c.5.2.8.5 1 .9v-.7l.2-.3.3-.1h1v8.1c0 .7 0 1.4-.3 2-.2.5-.6 1-1.2 1.2-.5.4-1.3.5-2.2.5Zm0-4.7c.5 0 1-.1 1.3-.4.3-.2.5-.5.7-1l.2-1a7.6 7.6 0 0 0 0-1.2 3 3 0 0 0-.2-1c-.2-.5-.4-.8-.7-1a2 2 0 0 0-1.3-.4 2 2 0 0 0-1.3.4 2 2 0 0 0-.7 1l-.2 1.2v.8c0 .5 0 .9.2 1.3l.7 1c.3.2.7.3 1.3.3Zm12.4 1.4c-.5 0-1-.1-1.5-.4-.4-.2-.8-.5-1-.8a2 2 0 0 1-.4-1.3c0-.7.3-1.3.9-1.7.6-.5 1.4-.7 2.3-.9l2.4-.3v-.5c0-.5-.2-.9-.4-1.2-.3-.3-.8-.4-1.5-.4-.5 0-.8 0-1.1.3-.3.2-.5.4-.6.7-.1.2-.2.3-.4.3h-.7l-.3-.1v-.3l.1-.6.6-.7 1-.5a4 4 0 0 1 1.4-.3c.7 0 1.2.1 1.7.3a2.5 2.5 0 0 1 1.5 1.6l.2 1v5.2l-.1.3-.3.1h-.7l-.3-.1v-1l-.6.6a3.3 3.3 0 0 1-2.2.7Zm.3-1.2c.5 0 .9-.1 1.2-.3.4-.2.7-.5.9-.9.2-.4.3-.9.3-1.5v-.4l-1.9.2c-.7.2-1.3.3-1.7.6-.4.2-.5.5-.5 1 0 .2 0 .5.2.7l.7.4.8.2Zm9.6 1.2c-.8 0-1.5-.2-2-.5s-1-.7-1.3-1.2c-.3-.6-.4-1.3-.4-2a9.8 9.8 0 0 1 0-1.3c0-.8.1-1.4.4-2 .3-.5.8-1 1.3-1.2a4 4 0 0 1 2-.5c.6 0 1.1.1 1.5.3.5.1.9.4 1.2.6a2.7 2.7 0 0 1 .8 1.8v.2l-.3.1h-1l-.2-.3c-.2-.5-.5-.9-.8-1.1-.3-.2-.7-.3-1.2-.3-.7 0-1.2.2-1.6.6-.4.4-.6 1-.6 1.9v1.1c0 .9.2 1.5.6 2 .4.3 1 .5 1.6.5.5 0 .9-.1 1.2-.3.3-.2.6-.6.8-1.1l.2-.3h1.2l.1.3a2.4 2.4 0 0 1-.5 1.4 3 3 0 0 1-1.7 1.1l-1.3.2Zm8.8 0c-.8 0-1.4-.2-2-.5-.5-.3-1-.7-1.2-1.2-.3-.6-.5-1.3-.5-2a9.8 9.8 0 0 1 0-1.3c0-.8.2-1.4.5-2 .3-.5.7-1 1.2-1.2a4 4 0 0 1 2-.5c.6 0 1.1.1 1.6.3.4.1.8.4 1 .6a2.7 2.7 0 0 1 1 1.8l-.1.2-.3.1h-1l-.2-.3c-.2-.5-.4-.9-.8-1.1-.3-.2-.7-.3-1.2-.3-.6 0-1.2.2-1.6.6-.4.4-.6 1-.6 1.9v1.1c0 .9.2 1.5.6 2 .4.3 1 .5 1.6.5.5 0 1-.1 1.2-.3.4-.2.6-.6.8-1.1l.2-.3h1.3v.3a2.4 2.4 0 0 1-.5 1.4 3 3 0 0 1-1.7 1.1l-1.3.2Zm8.9 0a4 4 0 0 1-2-.5c-.6-.3-1-.7-1.3-1.3-.3-.5-.5-1.2-.5-1.9a11.8 11.8 0 0 1 0-1.3c0-.8.2-1.4.5-2 .3-.5.7-1 1.3-1.2a4 4 0 0 1 2-.5 4 4 0 0 1 2 .5c.5.3 1 .7 1.2 1.3.3.5.5 1.1.5 1.9a11.3 11.3 0 0 1 0 1.3c0 .7-.2 1.4-.5 2-.2.5-.7.9-1.2 1.2a4 4 0 0 1-2 .5Zm0-1.3a2 2 0 0 0 1.6-.6c.3-.4.6-1 .6-1.9a9.2 9.2 0 0 0 0-1.2c0-.8-.3-1.4-.6-1.8a2 2 0 0 0-1.6-.6c-.7 0-1.2.2-1.6.6-.4.4-.6 1-.7 1.8a9.2 9.2 0 0 0 0 1.2c0 .9.3 1.5.7 1.9.4.4 1 .6 1.6.6Zm8.9 1.3c-.7 0-1.3-.2-1.8-.5a3 3 0 0 1-1-1.3c-.3-.5-.4-1.1-.4-1.8v-4.8l.3-.1h1.1l.1.3v4.5c0 1.6.7 2.4 2 2.4a2 2 0 0 0 1.7-.7c.4-.4.6-1 .6-1.7v-4.7l.3-.1h1.1l.1.3v7.6l-.1.3-.3.1h-.7l-.3-.1v-1l-1.1 1c-.4.1-1 .3-1.6.3Zm6.8-.2-.2-.1-.1-.3v-7.8l.3-.1h1l.2.3v.8c.2-.4.6-.7 1-1 .4-.2 1-.3 1.6-.3.7 0 1.3.2 1.8.5s.9.7 1.1 1.2c.2.6.4 1.2.4 2v4.4l-.1.3-.3.1h-.8l-.3-.1v-4.7c0-.7-.2-1.3-.6-1.7-.4-.5-.9-.7-1.6-.7-.7 0-1.2.2-1.6.7-.4.4-.6 1-.6 1.7v4.4l-.1.3-.3.1h-.8Zm12.5 0c-.6 0-1-.1-1.4-.3a2 2 0 0 1-.9-1 4 4 0 0 1-.2-1.5V396h-1.3l-.2-.1-.1-.3v-.8l.3-.1h1.3V391.8l.4-.2h.7c.1 0 .2 0 .3.2V394.7h2.3l.1.3V396h-2.3v4.2c0 .5 0 .9.2 1.2.2.2.5.4 1 .4h1l.2.1v1.1l-.3.1h-1Zm3.3 0-.3-.1-.1-.3v-1.1l.1-.3H533.4V403l-.3.1H532Z"/><g clip-path="url(#c)"><path fill="#6A74A5" d="M172.4 810.5c-.9 0-1.7-.2-2.3-.5-.7-.3-1.2-.8-1.5-1.5-.4-.6-.6-1.4-.6-2.4a57.5 57.5 0 0 1 0-2.7c0-1 .2-1.8.6-2.5.4-.7.9-1.1 1.5-1.5a5 5 0 0 1 2.3-.5 5 5 0 0 1 2.3.5c.7.4 1.2.8 1.5 1.5.4.7.6 1.5.7 2.5a30.4 30.4 0 0 1 0 2.7c0 1-.3 1.8-.6 2.4-.4.7-.9 1.2-1.5 1.5-.7.3-1.5.5-2.4.5Zm0-1.4c.8 0 1.5-.2 2-.7.5-.5.8-1.3.9-2.4a29.7 29.7 0 0 0 0-2.6c0-.7-.2-1.3-.5-1.8-.2-.4-.5-.8-1-1-.4-.2-.8-.3-1.4-.3a3 3 0 0 0-1.4.3c-.4.2-.8.6-1 1-.3.5-.4 1-.4 1.8a54.8 54.8 0 0 0 0 2.6c0 1 .3 1.9.8 2.4s1.2.7 2 .7Zm7 1.2h-.3V802l.3-.1h1l.1.4v.7c.2-.4.5-.7.9-.8a3 3 0 0 1 1.3-.3H183.6l.1.4V803.3h-1.3c-.6 0-1 .2-1.4.6-.3.3-.5.8-.5 1.3v5l-.3.1h-.8Zm12.1.2c-.6 0-1-.1-1.5-.3l-1-.5-.7-.6-.2-.6.1-.2.3-.1H189.3l.2.1.5.5.6.4h1c.5 0 1 0 1.3-.2.3-.2.5-.5.5-1 0-.2 0-.4-.2-.6l-.8-.4a13 13 0 0 0-1.5-.4c-.6-.2-1.1-.3-1.5-.6-.4-.2-.7-.4-.8-.7-.2-.3-.3-.7-.3-1 0-.5.2-.9.4-1.2.2-.4.6-.7 1-1 .5-.2 1-.3 1.7-.3.6 0 1 0 1.5.2a3.1 3.1 0 0 1 1.5 1.2l.2.5v.3h-1.2l-.1-.1-.4-.4c-.1-.2-.3-.3-.6-.4l-.9-.1c-.5 0-.9.1-1.2.3a1 1 0 0 0-.4.9l.2.5c.1.2.4.3.7.4l1.5.5c.7.1 1.2.3 1.6.5l.9.8c.2.4.2.7.2 1.1 0 .5 0 .9-.4 1.2-.2.4-.6.7-1.1 1-.5.2-1.1.3-1.9.3Zm5.7-.2h-.3l-.1-.4v-7.8l.4-.1h1V810.3l-.3.1h-.7Zm-.2-9.9h-.2l-.1-.3v-1.2h1.6l.1.3v.9l-.1.2-.3.1h-1Zm7 13.4c-.6 0-1.2 0-1.7-.3l-1.1-.7c-.3-.2-.4-.5-.6-.8l-.1-.6v-.3l.3-.1h1l.2.3.3.6.6.5 1.1.2c.5 0 1 0 1.3-.2.3-.1.6-.4.7-.7.2-.4.3-.8.3-1.4v-1l-1 .7c-.4.3-1 .4-1.6.4-.6 0-1-.1-1.5-.3a3 3 0 0 1-1.7-2.1 6.4 6.4 0 0 1-.2-2.3l.2-1.5.6-1.2 1-.9c.5-.2 1-.3 1.6-.3a3 3 0 0 1 1.6.4c.4.2.8.5 1 .9v-.7l.1-.3.3-.1h1l.1.4v7.7c0 .7 0 1.4-.3 2-.3.5-.7 1-1.2 1.2-.6.4-1.3.5-2.2.5Zm0-4.7c.6 0 1-.1 1.3-.4.4-.2.6-.5.7-1 .2-.3.3-.7.3-1a7.6 7.6 0 0 0 0-1.2 3 3 0 0 0-.3-1c-.1-.5-.3-.8-.7-1a2 2 0 0 0-1.3-.4 2 2 0 0 0-1.2.4 2 2 0 0 0-.7 1c-.2.3-.2.7-.3 1.2v.8c0 .5.1.9.3 1.3.1.4.3.7.7 1 .3.2.7.3 1.2.3Zm6.6 1.2h-.3V802l.3-.1h1l.1.4v.7l1-1c.5-.2 1-.3 1.7-.3s1.3.2 1.7.5c.5.3.9.7 1.1 1.3.3.5.4 1.1.4 1.8v4.8l-.3.1h-1.1l-.1-.4v-4.4c0-.7-.2-1.3-.6-1.7-.3-.5-.9-.7-1.6-.7-.6 0-1.2.2-1.6.7-.4.4-.5 1-.5 1.7v4.4c0 .1 0 .2-.2.3l-.2.1h-.8Zm13.6 0h-.3V802l.3-.1h1l.1.4v7.8l-.3.1h-.8Zm-.1-9.9h-.3v-1.5h1.5l.2.3v.9s0 .2-.2.2l-.2.1h-1Zm4 9.9h-.3V802l.3-.1h1l.1.4v.7l1-1c.5-.2 1-.3 1.7-.3s1.3.2 1.7.5c.5.3.9.7 1.1 1.3.3.5.4 1.1.4 1.8v4.8l-.3.1h-1.1l-.1-.4v-4.4c0-.7-.2-1.3-.6-1.7-.3-.5-.9-.7-1.6-.7-.6 0-1.2.2-1.6.7-.4.4-.5 1-.5 1.7v4.4c0 .1 0 .2-.2.3l-.2.1h-.8Zm16.3.2a3 3 0 0 1-2.8-1.7c-.2-.6-.3-1.2-.3-2v-4.7l.3-.1h1.1l.1.4v4.4c0 1.6.7 2.4 2 2.4a2 2 0 0 0 1.7-.7c.4-.4.6-1 .6-1.7V802l.3-.1h1.1V810.3l-.3.1h-1v-1.1l-1.1 1c-.4.1-1 .3-1.7.3Zm9.4 0c-.6 0-1-.1-1.5-.3l-1-.5-.6-.6-.2-.6v-.2l.3-.1H251.7l.1.1.5.5.6.4h1c.5 0 1 0 1.3-.2.4-.2.5-.5.5-1 0-.2 0-.4-.2-.6l-.8-.4-1.5-.4c-.6-.2-1.1-.3-1.5-.6-.4-.2-.6-.4-.8-.7l-.2-1c0-.5 0-.9.3-1.2l1-1c.5-.2 1-.3 1.8-.3.5 0 1 0 1.4.2a3.1 3.1 0 0 1 1.5 1.2c.2.2.2.3.2.5v.3h-1.2v-.1l-.5-.4-.5-.4-1-.1c-.5 0-.9.1-1.1.3a1 1 0 0 0-.4.9l.1.5.7.4 1.5.5c.7.1 1.2.3 1.6.5l1 .8.2 1.1c0 .5-.2.9-.4 1.2-.3.4-.7.7-1.2 1-.5.2-1.1.3-1.9.3Zm5.7-.2h-.3V802l.3-.1h1l.1.4v7.8l-.3.1h-.8Zm-.1-9.9h-.3l-.1-.3v-1.2H260.7l.1.3v1.1l-.3.1h-1Zm4 9.9h-.3l-.1-.4v-7.8l.4-.1h1v1.1l1.1-1c.5-.2 1-.3 1.7-.3s1.2.2 1.7.5.9.7 1.1 1.3c.3.5.4 1.1.4 1.8v4.5l-.1.3-.3.1h-1l-.1-.4v-4.4c0-.7-.2-1.3-.6-1.7-.3-.5-.9-.7-1.6-.7-.6 0-1.2.2-1.6.7-.4.4-.6 1-.6 1.7v4.7l-.3.1h-.8Zm12.7 3.5c-.7 0-1.3 0-1.8-.3-.4-.2-.8-.4-1-.7-.3-.2-.5-.5-.6-.8l-.2-.6v-.3l.4-.1h1l.1.3.3.6.6.5 1.1.2c.5 0 1 0 1.3-.2.3-.1.6-.4.8-.7l.2-1.4v-1l-1 .7c-.4.3-1 .4-1.5.4-.6 0-1.2-.1-1.6-.3a3 3 0 0 1-1-.9 4 4 0 0 1-.6-1.2 6.3 6.3 0 0 1-.3-2.3l.3-1.5c0-.4.3-.8.6-1.2.2-.4.6-.7 1-.9.4-.2 1-.3 1.6-.3a3 3 0 0 1 1.5.4c.5.2.8.5 1 .9v-.7l.2-.3.2-.1h1.1v8.1c0 .7 0 1.4-.3 2-.2.5-.6 1-1.2 1.2-.5.4-1.3.5-2.2.5Zm0-4.7c.5 0 1-.1 1.3-.4.3-.2.5-.5.7-1l.2-1a8.3 8.3 0 0 0 0-1.2 3 3 0 0 0-.2-1c-.2-.5-.4-.8-.7-1a2 2 0 0 0-1.3-.4 2 2 0 0 0-1.3.4 2 2 0 0 0-.7 1l-.2 1.2v.8c0 .5 0 .9.2 1.3.1.4.4.7.7 1 .3.2.7.3 1.3.3Zm6.4-4.4h-.2l-.1-.4V803l.3-.2h1.2s.2 0 .2.2l.2.2v1.1c0 .1 0 .2-.2.3l-.2.1h-1.2Zm0 5.6h-.2l-.1-.4v-1.3l.3-.2h1.2s.2 0 .2.2l.2.2v1.1c0 .1 0 .2-.2.3l-.2.1h-1.2Z"/><path fill="#DAE0F2" d="M323.8 805.4h580.4v1H323.8z"/></g><path fill="#3A3F63" d="m771.3 659-.3-.1V647.9l.3-.1h7l.3.1V649.6l-.3.1H773v3h4.8c.2 0 .3 0 .3.2l.1.2v1.4l-.4.1h-4.8v4.3l-.4.1h-1.4Zm12.6.2c-.9 0-1.6-.2-2.2-.5-.6-.3-1-.7-1.3-1.3-.3-.5-.5-1.1-.5-1.9a12.7 12.7 0 0 1 0-1.4c0-.7.2-1.3.5-1.9.3-.5.8-1 1.3-1.2.6-.3 1.3-.5 2.2-.5.8 0 1.5.2 2 .5.7.3 1.1.7 1.4 1.2.4.6.5 1.2.6 2a13.7 13.7 0 0 1 0 1.3c0 .8-.2 1.4-.6 2a3 3 0 0 1-1.3 1.2c-.6.3-1.3.5-2.1.5Zm0-1.6c.5 0 1-.2 1.3-.6.3-.3.5-.8.5-1.5a10.3 10.3 0 0 0 0-1.3c0-.7-.2-1.2-.5-1.6-.3-.3-.8-.5-1.3-.5-.6 0-1 .2-1.3.5-.3.4-.5 1-.5 1.6a9.5 9.5 0 0 0 0 1.3c0 .7.2 1.2.5 1.5.3.4.7.6 1.3.6Zm6.1 1.4-.2-.1-.1-.3v-7.8l.3-.1h1.6l.1.4v.6c.3-.3.6-.6 1-.7.4-.2.8-.3 1.3-.3h1v1.8l-.3.1h-1.2c-.6 0-1 .1-1.2.4-.3.3-.5.7-.5 1.2v4.7l-.4.1H790Zm10 3.5c-.8 0-1.4 0-2-.3l-1.1-.7a3 3 0 0 1-.7-.9l-.1-.6v-.3l.3-.1h1.7l.1.3.3.4.5.4c.2.2.5.2.9.2s.7 0 1-.2c.3 0 .5-.3.6-.5.2-.3.3-.7.3-1.2v-1l-1 .7c-.4.2-1 .3-1.5.3-.6 0-1-.1-1.5-.3a3 3 0 0 1-1-.8c-.3-.3-.5-.7-.7-1.2l-.2-1.5v-.9c0-.5 0-1 .2-1.5l.7-1.2a3 3 0 0 1 1-.8c.4-.2 1-.3 1.5-.3a3 3 0 0 1 2.6 1.2V650.8l.3-.1h1.6l.1.4v7.7c0 .8-.1 1.4-.4 2a3 3 0 0 1-1.3 1.3c-.6.3-1.3.4-2.2.4Zm-.1-5.2c.4 0 .8-.1 1-.3.3-.2.5-.5.6-.8.2-.3.2-.6.3-1a7 7 0 0 0 0-1l-.3-1c0-.2-.3-.5-.6-.7-.2-.2-.6-.3-1-.3s-.8.1-1 .3c-.3.2-.5.5-.6.8a4.9 4.9 0 0 0 0 2.9c0 .3.3.6.5.8.3.2.7.3 1 .3Zm9.9 1.9c-.9 0-1.6-.2-2.2-.5-.6-.3-1-.7-1.3-1.3-.3-.5-.5-1.1-.5-1.9a12.7 12.7 0 0 1 0-1.4c0-.7.2-1.3.5-1.9.3-.5.7-1 1.3-1.2.6-.3 1.3-.5 2.2-.5.8 0 1.5.2 2 .5.7.3 1.1.7 1.4 1.2.3.6.5 1.2.6 2a13.7 13.7 0 0 1 0 1.3c0 .8-.3 1.4-.6 2a3 3 0 0 1-1.3 1.2c-.6.3-1.3.5-2.1.5Zm0-1.6c.5 0 1-.2 1.3-.6.3-.3.4-.8.5-1.5a10.3 10.3 0 0 0 0-1.3c0-.7-.2-1.2-.5-1.6-.3-.3-.8-.5-1.3-.5-.6 0-1 .2-1.4.5-.3.4-.4 1-.5 1.6a9.5 9.5 0 0 0 0 1.3c0 .7.2 1.2.5 1.5.3.4.8.6 1.4.6Zm9.4 1.4c-.6 0-1.1-.1-1.6-.3l-1-1c-.2-.5-.3-1-.3-1.7v-3.6h-1.2l-.3-.1-.1-.3v-1.2l.4-.1h1.2V648l.1-.2.3-.2h1.3c.1 0 .2 0 .3.2V650.7h2.4v1.6h-2.3v3.5c0 .5 0 .8.2 1 .2.3.4.4.8.4h1.1c.1 0 .2 0 .3.2l.1.2v1.3l-.4.1h-1.3Zm7.4 0-.3-.1-.1-.3v-10.4l.1-.3.3-.1h4.3c.8 0 1.5.1 2.1.4a3 3 0 0 1 1.5 1.2c.3.5.5 1.2.5 2s-.2 1.4-.5 2c-.4.4-.8.8-1.5 1-.6.3-1.3.5-2.1.5h-2.4v3.7l-.1.3-.3.1h-1.5Zm1.8-5.9h2.4c.6 0 1-.1 1.4-.4.3-.3.5-.8.5-1.3 0-.6-.2-1-.5-1.3-.3-.4-.8-.5-1.4-.5h-2.4v3.5Zm10.4 6c-.6 0-1 0-1.5-.3a3 3 0 0 1-1-.8 2 2 0 0 1 .5-3c.5-.5 1.3-.8 2.3-1l2.2-.3v-.3c0-.5-.1-.8-.3-1-.2-.3-.6-.4-1.2-.4-.4 0-.7 0-1 .2l-.4.6c-.1.2-.3.2-.4.2h-1.6v-.3c0-.2 0-.4.2-.6.1-.3.3-.5.6-.7.3-.3.6-.5 1-.6a4.9 4.9 0 0 1 3.3 0c.5.1.9.4 1.2.6l.6 1 .2 1.2v5c0 .1 0 .2-.2.3l-.2.1h-1.3l-.3-.1-.1-.3v-.6l-.6.6a3.2 3.2 0 0 1-2 .6Zm.5-1.5c.4 0 .7 0 1-.2l.8-.7.2-1.3v-.4l-1.6.3c-.6.1-1 .3-1.4.5-.3.2-.4.4-.4.8 0 .2 0 .4.2.6l.5.3.7.1Zm9.4 1.6c-.7 0-1.2-.1-1.7-.3l-1-.5c-.4-.2-.6-.5-.7-.7l-.3-.6.1-.2.3-.1h1.5a56.8 56.8 0 0 1 1 .8l.8.1c.4 0 .8 0 1-.2.3-.2.5-.4.5-.8 0-.2 0-.4-.2-.5l-.7-.4-1.4-.3a6 6 0 0 1-1.5-.6c-.4-.2-.7-.4-.9-.8-.2-.3-.2-.7-.2-1 0-.5 0-.9.3-1.3s.6-.7 1.1-1c.5-.2 1.2-.3 1.9-.3a4.6 4.6 0 0 1 2.6.8l.6.6.3.6-.1.3h-1.8l-.3-.4a2 2 0 0 0-1.3-.4c-.4 0-.7 0-1 .2-.2.2-.3.4-.3.7 0 .2 0 .3.2.5l.6.4 1.4.3a5 5 0 0 1 1.7.6c.4.2.7.5.9.9.2.3.3.6.3 1 0 .5-.2 1-.5 1.3-.2.4-.7.7-1.2 1-.6.2-1.2.3-2 .3Zm8.5 0c-.7 0-1.2-.1-1.7-.3l-1-.5c-.4-.2-.6-.5-.7-.7-.2-.2-.2-.4-.2-.6v-.2l.3-.1H855.4l.5.4.5.4.8.1c.4 0 .8 0 1-.2.4-.2.5-.4.5-.8 0-.2 0-.4-.2-.5-.1-.1-.3-.3-.7-.4l-1.4-.3a6 6 0 0 1-1.5-.6c-.4-.2-.7-.4-.8-.8-.2-.3-.3-.7-.3-1 0-.5 0-.9.3-1.3s.7-.7 1.2-1c.5-.2 1-.3 1.8-.3a4.6 4.6 0 0 1 2.6.8l.6.6.3.6-.1.3H858.8l-.4-.4a2 2 0 0 0-1.3-.4c-.4 0-.7 0-1 .2-.1.2-.3.4-.3.7l.2.5.6.4 1.4.3a5 5 0 0 1 1.7.6c.4.2.7.5 1 .9l.2 1c0 .5-.2 1-.4 1.3-.3.4-.7.7-1.3 1-.5.2-1.2.3-2 .3Zm7.4-.2-.4-.1-.2-.3-2.2-7.4v-.4l.3-.1h1.5l.1.3 1.6 5.3 1.6-5.3.2-.2.3-.1h.8l.3.1.2.2 1.7 5.3 1.5-5.3.1-.2.3-.1h1.5v.5l-2.2 7.4-.2.3-.4.1h-1l-.4-.1-.1-.3-1.7-5-1.7 5-.1.3-.4.1h-1Zm14.3.2c-.9 0-1.6-.2-2.2-.5-.6-.3-1-.7-1.3-1.3-.3-.5-.5-1.1-.5-1.9a12.7 12.7 0 0 1 0-1.4c0-.7.2-1.3.5-1.9.3-.5.8-1 1.3-1.2.6-.3 1.3-.5 2.2-.5.8 0 1.5.2 2 .5.7.3 1.1.7 1.4 1.2.4.6.5 1.2.6 2a13.7 13.7 0 0 1 0 1.3c0 .8-.2 1.4-.6 2a3 3 0 0 1-1.3 1.2c-.6.3-1.3.5-2.1.5Zm0-1.6c.5 0 1-.2 1.3-.6.3-.3.5-.8.5-1.5a10.3 10.3 0 0 0 0-1.3c0-.7-.2-1.2-.5-1.6-.3-.3-.8-.5-1.3-.5-.6 0-1 .2-1.3.5-.3.4-.5 1-.5 1.6a9.5 9.5 0 0 0 0 1.3c0 .7.2 1.2.5 1.5.3.4.7.6 1.3.6Zm6.1 1.4-.2-.1-.1-.3v-7.8l.3-.1h1.6l.1.4v.6c.3-.3.6-.6 1-.7.4-.2.8-.3 1.3-.3h1v1.8l-.3.1h-1.2c-.6 0-1 .1-1.2.4-.3.3-.5.7-.5 1.2v4.7l-.4.1H885Zm9.3.2c-.6 0-1-.1-1.5-.3l-1-.8-.7-1.2a5.8 5.8 0 0 1-.2-2 10.3 10.3 0 0 1 .2-2c.2-.5.4-1 .7-1.3a3 3 0 0 1 1-.8l1.5-.3a3.2 3.2 0 0 1 2.5 1v-3.7l.3-.2h1.4c.1 0 .2 0 .3.2v11.1l-.3.1h-1.3l-.2-.1-.1-.3v-.6a3.1 3.1 0 0 1-2.6 1.2Zm.6-1.8c.4 0 .8 0 1-.3l.7-.7.2-1a10.7 10.7 0 0 0 0-1.2c0-.4-.1-.7-.3-1l-.6-.7c-.2-.2-.6-.3-1-.3-.5 0-.8.1-1 .3-.3.2-.5.5-.6.8-.2.3-.2.7-.2 1v1c0 .4 0 .8.2 1 0 .4.3.7.5.9.3.2.6.2 1 .2Zm8.9-1.4h-.2l-.1-.3v-.5c0-.5.1-.8.3-1.1l.6-1a26.3 26.3 0 0 1 1.4-1.4l.4-.8c0-.3 0-.6-.2-.8l-.7-.5a2 2 0 0 0-.8-.1 2 2 0 0 0-1.2.3 2 2 0 0 0-.7 1.2l-.1.3h-1.9l-.1-.3c0-.4 0-.8.3-1.2a3.5 3.5 0 0 1 2-1.9 5 5 0 0 1 1.8-.3 5 5 0 0 1 1.9.3c.5.2.9.4 1.1.7a2.7 2.7 0 0 1 .6 3.1l-.6 1a52 52 0 0 1-1.4 1.5 2.4 2.4 0 0 0-.4 1.1v.3l-.2.3h-1.8Zm0 3-.3-.1-.2-.3v-1.4s0-.2.2-.3h2.1v2l-.3.1h-1.6Z"/><rect width="741" height="54" x="167.5" y="467.3" fill="#fff" stroke="#DAE0F2" rx="3.5"/><g clip-path="url(#d)"><path fill="#858EBD" d="M188 499c-1 0-1.7-.2-2.3-.5-.7-.3-1.2-.7-1.5-1.1-.3-.5-.5-1-.5-1.5v-.2l.3-.1h.8l.3.1.2.2c0 .3.1.5.3.8l1 .6c.3.2.8.3 1.4.3 1 0 1.6-.2 2-.5.4-.4.7-.8.7-1.3 0-.4-.2-.7-.4-1l-1-.6-1.9-.5-1.9-.8a3 3 0 0 1-1.1-1c-.3-.4-.4-.9-.4-1.5s.1-1 .5-1.5c.3-.5.7-.8 1.3-1.1.6-.3 1.3-.4 2.1-.4a5 5 0 0 1 1.7.3 3.6 3.6 0 0 1 2 1.6c.2.3.3.7.3 1v.2l-.3.1h-1.1l-.2-.3c0-.4-.3-.8-.7-1.1-.5-.3-1-.4-1.7-.4s-1.2 0-1.7.4c-.4.2-.6.6-.6 1.2 0 .4 0 .7.3 1a16.3 16.3 0 0 0 2.7 1.2c.8.2 1.5.4 2 .7.6.2 1 .6 1.2 1 .3.3.4.8.4 1.4 0 .7-.1 1.3-.5 1.8-.3.4-.8.8-1.5 1-.6.3-1.3.4-2.2.4Zm8.5 0c-.6 0-1-.2-1.5-.4-.4-.2-.8-.5-1-.9a2 2 0 0 1-.5-1.2c0-.7.3-1.3 1-1.8.5-.4 1.3-.7 2.3-.8l2.4-.4v-.4c0-.5-.2-1-.5-1.2-.3-.3-.8-.5-1.4-.5-.5 0-.9.1-1.2.3-.3.2-.5.5-.6.8l-.3.2h-1V491.7l.7-.7 1-.6a4 4 0 0 1 1.4-.2c.6 0 1.2 0 1.6.2a2.5 2.5 0 0 1 1.6 1.6l.2 1.1v5.2l-.1.3h-1.3l-.1-.3v-.7l-.6.6a3.2 3.2 0 0 1-2.1.6Zm.3-1.3c.4 0 .8 0 1.2-.3.4-.1.6-.4.8-.8.3-.4.4-1 .4-1.5v-.5l-1.9.3c-.8.1-1.3.3-1.7.5-.4.3-.6.6-.6 1 0 .3.1.5.3.7l.6.5.9.1Zm6.5 1h-.2l-.1-.3V490.5h1.3l.1.3v.6c.3-.4.6-.6 1-.8.3-.2.8-.3 1.3-.3 1.2 0 2 .5 2.6 1.4.2-.4.6-.8 1-1 .5-.3 1-.4 1.6-.4.6 0 1 .1 1.5.4.5.2.8.6 1.1 1.1.3.5.4 1.2.4 2v4.6l-.1.3h-1.3v-4.8c0-.6-.2-1-.3-1.4-.2-.3-.4-.6-.7-.7-.3-.2-.6-.2-1-.2a2 2 0 0 0-.8.2c-.3.1-.6.4-.7.7a3 3 0 0 0-.3 1.4v4.5l-.1.3h-1.3l-.1-.3v-4.5c0-.6 0-1-.3-1.4-.2-.3-.4-.6-.7-.7a2 2 0 0 0-1.8 0l-.7.7a3 3 0 0 0-.2 1.4v4.5l-.1.3h-1.1Zm14.3 3.1-.3-.1-.1-.3v-10.6l.1-.3h1.3v1a3 3 0 0 1 2.7-1.2c.6 0 1.1 0 1.5.3.4.2.8.5 1 .8l.7 1.2.2 1.5a8.5 8.5 0 0 1-.2 2.5l-.6 1.2a3 3 0 0 1-1 .8c-.5.2-1 .3-1.6.3-.6 0-1.1-.1-1.6-.3l-1-.9v4l-.4.1h-.7Zm3.4-4.2c.5 0 1-.1 1.3-.3.3-.3.5-.6.6-1l.3-1.2v-1l-.3-1.2a2 2 0 0 0-.6-1 2 2 0 0 0-1.3-.3c-.6 0-1 0-1.3.3-.3.3-.6.6-.7 1-.2.4-.3.7-.3 1.1a9.7 9.7 0 0 0 0 1.3c0 .3.1.7.3 1 .1.4.4.7.7 1 .3.2.8.3 1.3.3Zm6.1 1.2-.3-.1V487.5l.3-.1h.8l.2.1.1.3v10.9H227Zm6.8.1c-1 0-2-.3-2.6-1-.7-.7-1-1.6-1-2.8a7 7 0 0 1 0-1c0-.8.1-1.5.4-2 .4-.6.8-1 1.3-1.4.6-.3 1.2-.4 2-.4.7 0 1.4.1 2 .5.5.3 1 .8 1.2 1.4.3.7.4 1.4.4 2.3v.5H231.6v.2c0 .5.2.9.3 1.3l.8.9c.3.2.7.3 1.1.3a2.3 2.3 0 0 0 2-.9l.1-.2h1.3l.1.3-.2.6-.7.6a4 4 0 0 1-2.6.8Zm-2.2-5h4.4c0-.4 0-.9-.2-1.2a2 2 0 0 0-2-1.2 2 2 0 0 0-1.2.3 2 2 0 0 0-.7.9 3 3 0 0 0-.3 1.2Zm13.3 6.7c-1.2 0-2.2-.1-3-.5-.8-.4-1.4-1-1.8-1.7a6.3 6.3 0 0 1-.9-3.2 17.5 17.5 0 0 1 0-2.2c.1-.7.3-1.4.6-2a4.8 4.8 0 0 1 2.7-2.5 8.3 8.3 0 0 1 4.8 0c.7.2 1.3.5 1.8 1 .5.4.8.9 1 1.5.3.6.5 1.3.5 2a11 11 0 0 1-.3 3.4c-.2.4-.5.7-.8.8a2 2 0 0 1-2.9-.7c0 .2-.2.4-.3.5l-.6.5-1 .2c-.9 0-1.5-.3-2-.9-.4-.6-.7-1.4-.7-2.4s.3-1.9.7-2.4c.5-.6 1.1-.9 2-.9.3 0 .7 0 1 .2l.5.6v-.3l.1-.3h1l.1.3v3.4c0 .5.1.8.3 1 .2.3.4.4.7.4.3 0 .5-.1.7-.3l.2-.5.1-.6a23.8 23.8 0 0 0 0-1.9 5 5 0 0 0-.6-2.1 3 3 0 0 0-1.4-1.3c-.7-.3-1.5-.5-2.6-.5-.9 0-1.6.2-2.3.5-.6.3-1 .8-1.4 1.3a5 5 0 0 0-.7 2.1v2.6c.1 1.2.6 2.2 1.3 2.8.8.7 1.8 1 3.2 1 .7 0 1.3 0 1.8-.2a3 3 0 0 0 1-.4 17 17 0 0 0 1-.6h.6l.3.1.1.2v.2h-.1a5 5 0 0 1-2.6 1.6 8 8 0 0 1-2.1.2Zm-.2-4c.6 0 1-.3 1.2-.6.2-.4.3-1 .3-1.6a3 3 0 0 0-.3-1.6c-.2-.4-.6-.6-1.2-.6-.5 0-1 .2-1.2.6a3 3 0 0 0-.3 1.6l.1 1c.1.4.3.6.5.8.3.2.5.3 1 .3Zm11.5 5.7c-.7 0-1.3-.1-1.8-.3l-1.1-.7-.6-.8-.1-.7v-.2l.3-.2h.8l.2.1c.1 0 .2.1.2.3l.3.5c.1.2.3.4.6.5.2.2.6.2 1.1.2.5 0 1 0 1.3-.2.3 0 .6-.3.7-.7.2-.3.3-.8.3-1.3v-1.1l-1 .8c-.4.2-1 .3-1.6.3-.6 0-1 0-1.5-.3a3 3 0 0 1-1-.8 4 4 0 0 1-.7-1.3 6.3 6.3 0 0 1-.2-2.3l.2-1.4.6-1.3 1-.8c.5-.2 1-.3 1.6-.3a3 3 0 0 1 1.6.3c.4.3.8.6 1 1v-.8l.1-.3h1.3l.1.3v7.8c0 .7 0 1.3-.3 1.9-.3.5-.7 1-1.2 1.3-.6.3-1.3.5-2.2.5Zm0-4.8a2 2 0 0 0 2-1.3l.2-1a8.2 8.2 0 0 0 0-1.2 3 3 0 0 0-.3-1.1c-.1-.4-.3-.7-.7-1a2 2 0 0 0-1.3-.3 2 2 0 0 0-1.2.3 2 2 0 0 0-.7 1l-.3 1.2v.9c0 .4.1.9.3 1.2.1.4.3.7.7 1 .3.2.7.3 1.2.3Zm6.5 1.3-.3-.1v-8.2h1.3V491.4c.3-.4.6-.6 1-.8.4-.2.8-.3 1.3-.3 1.3 0 2.1.5 2.6 1.4.3-.4.6-.8 1-1 .5-.3 1-.4 1.7-.4.5 0 1 .1 1.5.4.4.2.8.6 1 1.1.3.5.5 1.2.5 2v4.6c0 .1 0 .2-.2.3H273l-.1-.3v-4.5c0-.6-.1-1-.3-1.4-.2-.3-.4-.6-.7-.7-.3-.2-.6-.2-1-.2a2 2 0 0 0-.8.2c-.3.1-.5.4-.7.7a3 3 0 0 0-.3 1.4v4.8H267.6v-4.8c0-.6-.1-1-.3-1.4-.2-.3-.4-.6-.7-.7a2 2 0 0 0-1.8 0c-.3.1-.5.4-.7.7a3 3 0 0 0-.3 1.4v4.8h-1.1Zm16.2.1c-.6 0-1 0-1.5-.3-.4-.2-.8-.5-1-.9a2 2 0 0 1-.5-1.2c0-.7.3-1.3 1-1.8.5-.4 1.3-.7 2.3-.8l2.4-.4v-.4c0-.5-.2-1-.5-1.2-.3-.3-.8-.5-1.4-.5-.5 0-.9.1-1.2.3-.3.2-.5.5-.6.8l-.3.2h-1V491.7l.7-.7 1-.6a4 4 0 0 1 1.4-.2c.6 0 1.2 0 1.6.2a2.5 2.5 0 0 1 1.6 1.6l.2 1.1v5.2l-.1.3h-1.3l-.1-.3v-.7l-.6.6a3.2 3.2 0 0 1-2.1.6Zm.3-1.2c.4 0 .8 0 1.2-.3.4-.1.6-.4.8-.8.3-.4.4-1 .4-1.5v-.5l-1.9.3c-.8.1-1.3.3-1.7.5-.4.3-.6.6-.6 1 0 .3.1.5.3.7l.6.5.9.1Zm6.5 1h-.2l-.1-.3V490.5H287v8.2h-1.1Zm-.1-9.8-.3-.1V487.4l.3-.1h1l.3.1V488.8h-1.3Zm4 9.9-.2-.1-.1-.3v-10.9l.3-.1h.8l.2.1.1.3v10.9h-1.1Zm3.8 0-.3-.1V497l.3-.1H294.9l.1.3v1.2l-.1.3H293.5Zm7 .1c-.8 0-1.4-.1-2-.4-.5-.3-1-.7-1.3-1.3-.3-.5-.4-1.2-.4-2a9.8 9.8 0 0 1 0-1.2c0-.8.1-1.5.4-2 .3-.6.8-1 1.3-1.3.6-.3 1.2-.4 2-.4.6 0 1.1 0 1.6.2.4.2.8.4 1 .7a2.7 2.7 0 0 1 1 1.7c0 .1 0 .2-.2.3h-1.2l-.2-.2c-.2-.6-.5-1-.8-1.1-.3-.3-.7-.4-1.2-.4-.7 0-1.2.2-1.6.6-.4.4-.6 1-.6 2v1c0 1 .2 1.6.6 2 .4.4 1 .6 1.6.6a2.1 2.1 0 0 0 2-1.4c0-.2.1-.3.2-.3h1.2l.1.3a2.4 2.4 0 0 1-.5 1.4 3 3 0 0 1-1.7 1c-.4.2-.8.2-1.3.2Zm8.8 0a4 4 0 0 1-2-.4c-.5-.4-1-.8-1.2-1.3-.3-.6-.5-1.2-.5-2a11.8 11.8 0 0 1 0-1.3c0-.7.2-1.3.5-1.9.3-.5.7-1 1.2-1.3a4 4 0 0 1 2-.4 4 4 0 0 1 2 .4c.6.4 1 .8 1.3 1.3.3.6.5 1.2.5 2a11.3 11.3 0 0 1 0 1.3c0 .7-.2 1.3-.5 1.9-.3.5-.7 1-1.2 1.3a4 4 0 0 1-2 .4Zm0-1.2a2 2 0 0 0 1.6-.6c.4-.5.6-1 .7-1.9a9.2 9.2 0 0 0 0-1.2c0-.8-.3-1.4-.7-1.9a2 2 0 0 0-1.6-.6c-.6 0-1.2.2-1.6.6-.4.5-.6 1-.6 1.9a9.2 9.2 0 0 0 0 1.2c0 .8.2 1.4.6 1.9.4.4 1 .6 1.6.6Zm6.2 1h-.3v-8.2h1.3V491.4c.3-.4.6-.6 1-.8.4-.2.8-.3 1.4-.3 1.2 0 2 .5 2.5 1.4.3-.4.6-.8 1-1 .6-.3 1-.4 1.7-.4.5 0 1 .1 1.5.4.4.2.8.6 1 1.1.3.5.5 1.2.5 2v4.6c0 .1 0 .2-.2.3h-1.2l-.1-.3v-4.5c0-.6-.1-1-.3-1.4-.2-.3-.4-.6-.7-.7-.3-.2-.6-.2-1-.2a2 2 0 0 0-.8.2c-.3.1-.5.4-.7.7a3 3 0 0 0-.3 1.4v4.8H320.3v-4.8c0-.6-.1-1-.3-1.4-.2-.3-.4-.6-.7-.7a2 2 0 0 0-1.8 0c-.3.1-.5.4-.7.7a3 3 0 0 0-.3 1.4v4.8h-1.1Z"/></g><path fill="#3A3F63" d="m168.8 457.8-.3-.1-.1-.3v-10.7l.4-.1h6.8l.1.3V447.8l-.3.1h-5.5v3.5h5.1l.3.1v1.2H170v3.7h5.8v1.3h-7Zm9.5 0-.3-.1-.1-.3V449.5h1.3l.1.3v.6c.3-.4.6-.6 1-.8.3-.2.8-.3 1.3-.3 1.2 0 2 .5 2.6 1.4.2-.4.6-.8 1-1 .5-.3 1-.4 1.6-.4.6 0 1.1.1 1.6.4.4.2.8.6 1 1.1.3.5.4 1.2.4 2V457.7H188.3v-4.8c0-.6-.2-1-.3-1.4-.2-.3-.4-.6-.7-.7-.3-.2-.6-.2-1-.2a2 2 0 0 0-.8.2c-.3.1-.5.4-.7.7a3 3 0 0 0-.3 1.4v4.5l-.1.3h-1.3v-4.8c0-.6-.2-1-.4-1.4-.1-.3-.4-.6-.7-.7a2 2 0 0 0-1.8 0l-.6.7a3 3 0 0 0-.3 1.4v4.5l-.1.3h-1Zm16.1.1c-.5 0-1 0-1.4-.3-.5-.2-.8-.5-1-.9a2 2 0 0 1-.5-1.2c0-.7.3-1.3 1-1.8.5-.4 1.3-.7 2.2-.8l2.4-.4v-.4c0-.5-.1-1-.4-1.2-.3-.3-.8-.5-1.4-.5-.5 0-1 .1-1.2.3-.3.2-.5.5-.6.8l-.4.2H192.2l-.1-.3c0-.2 0-.4.2-.6 0-.3.3-.5.5-.7l1-.6a4 4 0 0 1 1.5-.2c.6 0 1.2 0 1.6.2a2.5 2.5 0 0 1 1.6 1.6l.1 1.1v5.5h-1.3l-.1-.3v-.7l-.6.6a3.2 3.2 0 0 1-2.2.6Zm.4-1.2c.4 0 .8 0 1.2-.3.3-.1.6-.4.8-.8.2-.4.3-1 .3-1.5v-.5l-1.8.3c-.8.1-1.4.3-1.7.5-.4.3-.6.6-.6 1 0 .3 0 .5.2.7l.7.5.9.1Zm6.5 1h-.3v-8.2h1.3l.1.3V457.7h-1.1Zm-.1-9.8-.3-.1V446.4l.3-.1h1l.2.1c.1 0 .2.1.2.3v.8c0 .1 0 .2-.2.3h-1.2Zm4 9.9-.3-.1V446.5l.3-.1h.7l.3.1.1.3v10.9h-1.1Zm9.7.1c-.5 0-1 0-1.4-.3-.5-.2-.8-.5-1-.9a2 2 0 0 1-.5-1.2c0-.7.3-1.3 1-1.8.5-.4 1.3-.7 2.3-.8l2.3-.4v-.4c0-.5-.1-1-.4-1.2-.3-.3-.8-.5-1.4-.5-.5 0-.9.1-1.2.3-.3.2-.5.5-.6.8l-.3.2h-1l-.1-.3c0-.2 0-.4.2-.6 0-.3.3-.5.5-.7l1-.6a4 4 0 0 1 1.5-.2c.6 0 1.2 0 1.6.2a2.5 2.5 0 0 1 1.6 1.6l.2 1.1v5.2c0 .1 0 .2-.2.3h-1.2l-.1-.3v-.7l-.6.6a3.2 3.2 0 0 1-2.2.6Zm.4-1.2c.4 0 .8 0 1.2-.3.3-.1.6-.4.8-.8.2-.4.3-1 .3-1.5v-.5l-1.8.3c-.8.1-1.3.3-1.7.5-.4.3-.6.6-.6 1 0 .3 0 .5.3.7l.6.5.9.1Zm9.2 1.2c-.6 0-1.1 0-1.5-.3a3 3 0 0 1-1-.8 4 4 0 0 1-.7-1.3 6.4 6.4 0 0 1-.2-1.9 7.5 7.5 0 0 1 .2-2l.6-1.2 1-.8c.5-.2 1-.3 1.6-.3.6 0 1.1 0 1.6.3l1 .8v-3.9l.3-.1h.8l.3.1V457.7h-1.3v-1c-.3.4-.7.6-1.1.9-.4.2-1 .3-1.6.3Zm.3-1.3c.6 0 1-.1 1.3-.3.3-.3.6-.6.7-1 .2-.4.3-.7.3-1.1a10.5 10.5 0 0 0 0-1.3c0-.3-.1-.7-.3-1l-.7-1a2 2 0 0 0-1.3-.3 2 2 0 0 0-1.3.3 2 2 0 0 0-.7 1l-.2 1.2v1l.2 1.2.7 1c.3.2.8.3 1.3.3Zm9.2 1.3c-.6 0-1 0-1.5-.3a3 3 0 0 1-1.7-2 6.4 6.4 0 0 1-.2-2 8.3 8.3 0 0 1 .2-2l.6-1.2 1-.8c.5-.2 1-.3 1.6-.3.6 0 1.2 0 1.6.3l1 .8v-3.9l.4-.1h.7l.3.1.1.3v10.6l-.1.3h-1.3v-1l-1 .9c-.5.2-1 .3-1.7.3Zm.3-1.3c.6 0 1-.1 1.3-.3.3-.3.6-.6.7-1 .2-.4.3-.7.3-1.1a9.6 9.6 0 0 0 0-1.3c0-.3-.1-.7-.3-1-.1-.4-.4-.7-.7-1a2 2 0 0 0-1.3-.3 2 2 0 0 0-1.3.3 2 2 0 0 0-.6 1l-.3 1.2v1l.3 1.2c.1.4.3.7.6 1 .4.2.8.3 1.3.3Zm6.5 1.2-.2-.1-.1-.3V449.5H242v1l1-.8a3 3 0 0 1 1.3-.3h.6l.3.1v1.2l-.3.1h-1c-.5 0-1 .2-1.3.5-.3.4-.5.8-.5 1.4v5H240.7Zm9 .1c-1.2 0-2-.3-2.7-1-.7-.7-1-1.6-1-2.8a7 7 0 0 1 0-1c0-.8.1-1.5.4-2 .4-.6.8-1 1.3-1.4.6-.3 1.2-.4 2-.4.7 0 1.4.1 2 .5.5.3 1 .8 1.2 1.4.3.7.4 1.4.4 2.3v.5H247.4v.2c0 .5.2.9.3 1.3l.8.9c.3.2.7.3 1.1.3a2.3 2.3 0 0 0 2-.9l.1-.2h1.3l.1.3-.2.6-.7.6a4 4 0 0 1-2.6.8Zm-2.3-5h4.4c0-.4 0-.9-.2-1.2a2 2 0 0 0-2-1.2 2 2 0 0 0-1.2.3 2 2 0 0 0-.7.9 3 3 0 0 0-.3 1.2Zm10.7 5c-.6 0-1 0-1.5-.2-.4-.2-.8-.3-1-.6l-.6-.6-.3-.5c0-.1 0-.2.2-.3h1.2l.5.5.6.4 1 .1c.5 0 1 0 1.3-.3.3-.2.5-.5.5-.9 0-.3 0-.5-.2-.6-.1-.2-.4-.3-.8-.5l-1.5-.4-1.5-.5a2 2 0 0 1-.8-.8c-.2-.3-.2-.6-.2-1s0-.8.3-1.2l1-.9c.5-.2 1-.3 1.8-.3.5 0 1 0 1.4.2a3.1 3.1 0 0 1 1.5 1.1c.2.2.2.4.2.5v.3l-.3.1H260l-.1-.2-.4-.4-.5-.3-1-.2c-.5 0-.9.2-1.1.4a1 1 0 0 0-.4.8l.1.6.7.4 1.5.4c.7.2 1.2.3 1.6.6.4.2.7.5.9.8.2.3.3.7.3 1 0 .5-.2 1-.4 1.3-.3.4-.7.7-1.2.9-.5.2-1.1.3-1.9.3Zm8.2 0c-.6 0-1.1 0-1.5-.2-.5-.2-.8-.3-1-.6-.4-.2-.6-.4-.7-.6l-.2-.5.1-.3h1.3l.4.5.7.4 1 .1c.5 0 .9 0 1.3-.3.3-.2.5-.5.5-.9l-.2-.6-.8-.5c-.4 0-.9-.2-1.5-.4-.7-.1-1.2-.3-1.5-.5a2 2 0 0 1-.8-.8c-.2-.3-.3-.6-.3-1s.1-.8.4-1.2l1-.9c.5-.2 1-.3 1.7-.3.6 0 1 0 1.4.2a3.1 3.1 0 0 1 1.6 1.1l.2.5-.1.3-.3.1h-.8l-.1-.2-.4-.4-.6-.3-.9-.2c-.5 0-1 .2-1.2.4a1 1 0 0 0-.4.8c0 .2 0 .4.2.6.1.1.3.3.7.4l1.4.4c.7.2 1.3.3 1.7.6.4.2.7.5.9.8l.2 1c0 .5-.1 1-.4 1.3-.2.4-.6.7-1.1.9-.5.2-1.2.3-2 .3Z"/><g filter="url(#e)"><rect width="287.2" height="54.4" x="167" y="698.6" fill="url(#f)" rx="27"/></g><path fill="#fff" d="M288 731.8c-1.2 0-2.1-.2-2.9-.5-.7-.3-1.3-.8-1.7-1.3-.4-.5-.6-1-.6-1.7a.4.4 0 0 1 .4-.4h1.6c.1 0 .2 0 .3.2.1 0 .2 0 .2.2l.4.7c.2.2.5.4.9.5.3.2.8.2 1.3.2.9 0 1.5-.1 2-.4.4-.3.6-.7.6-1.2a1 1 0 0 0-.3-.8 3 3 0 0 0-1.1-.6l-1.9-.5a11 11 0 0 1-2.2-.8c-.6-.3-1.1-.7-1.4-1.2-.3-.4-.5-1-.5-1.8 0-.7.2-1.3.6-1.8.4-.6 1-1 1.6-1.3.7-.3 1.6-.5 2.5-.5.8 0 1.5.1 2.1.4.6.2 1.1.4 1.5.8l.9 1 .3 1.2v.3l-.3.1h-2a.5.5 0 0 1-.2-.3c-.1-.4-.3-.7-.7-1-.4-.3-1-.4-1.6-.4a3 3 0 0 0-1.5.4c-.4.2-.6.6-.6 1s0 .7.3 1l1 .5c.4.2 1 .4 1.7.5l2.5.8c.6.3 1 .7 1.4 1.2.3.4.4 1 .4 1.7 0 .8-.2 1.5-.6 2-.4.6-1 1-1.8 1.3-.8.3-1.7.5-2.7.5Zm7.3-.2-.3-.1-.1-.3v-8.5l.1-.3.3-.1h1.8l.1.4v8.8l-.4.1h-1.5Zm0-10.9-.4-.1V718.7l.3-.2h1.7c.1 0 .2 0 .3.2l.1.3v1.3l-.1.3-.3.1h-1.7Zm8.6 14.9c-1 0-1.6-.1-2.2-.4a4 4 0 0 1-1.3-.8c-.4-.3-.6-.6-.7-1l-.3-.7c0-.1 0-.2.2-.3l.3-.2h1.5l.3.1.2.3c0 .2.2.4.3.5l.5.5 1 .2c.5 0 1 0 1.2-.2.3-.2.6-.4.7-.7.2-.3.3-.7.3-1.3v-1.2l-1.1.8c-.5.3-1 .4-1.7.4-.6 0-1.2-.1-1.7-.3l-1.1-1c-.4-.3-.6-.8-.8-1.3l-.2-1.7v-1c0-.6 0-1.1.2-1.6l.7-1.4 1.2-.9a4 4 0 0 1 1.7-.3 3.5 3.5 0 0 1 2.9 1.3v-.7l.1-.3.3-.1h1.8l.1.4v8.7c0 .8-.1 1.6-.5 2.2-.3.6-.8 1.1-1.4 1.5-.7.3-1.5.5-2.5.5Zm-.1-6a2 2 0 0 0 1.2-.3c.3-.2.5-.5.6-.8l.3-1a8 8 0 0 0 0-1.2c0-.4-.1-.8-.3-1.1a2 2 0 0 0-.6-.9 2 2 0 0 0-1.2-.3 1.8 1.8 0 0 0-1.8 1.2l-.3 1.2a5.4 5.4 0 0 0 .2 2l.7 1c.3.1.7.3 1.2.3Zm7.4 2-.4-.1V722.4l.4-.1h1.7l.2.4v.7a3.8 3.8 0 0 1 3-1.3c.7 0 1.3.1 1.9.5.5.3 1 .8 1.2 1.4.3.6.5 1.3.5 2.1v5c0 .2 0 .3-.2.4l-.3.1h-1.6l-.3-.1v-5.3c0-.7-.3-1.2-.6-1.6-.3-.4-.8-.6-1.5-.6a2 2 0 0 0-1.5.6c-.3.4-.5 1-.5 1.6v5c0 .1 0 .2-.2.3l-.3.1h-1.5Zm15.3 0-.3-.1-.1-.3v-8.8l.4-.1h1.8l.1.4v8.5l-.1.3-.3.1h-1.5Zm0-10.9-.4-.1-.1-.3V719l.1-.3.3-.2h1.7s.2 0 .3.2l.1.3v1.3l-.1.3-.3.1h-1.7Zm4.7 11-.3-.2V722.4l.3-.1h1.8l.2.4v.7a3.8 3.8 0 0 1 3-1.3c.7 0 1.3.1 1.9.5.5.3 1 .8 1.2 1.4.3.6.5 1.3.5 2.1v5c0 .2 0 .3-.2.4l-.3.1h-1.6l-.3-.1v-5.3c0-.7-.3-1.2-.6-1.6-.3-.4-.8-.6-1.5-.6a2 2 0 0 0-1.5.6c-.4.4-.5 1-.5 1.6v5c0 .1 0 .2-.2.3l-.3.1h-1.6Z"/><path fill="#3A3F63" d="M200.8 659.2h-.3l-.1-.4V648.1h4.3c1.2 0 2.1.2 2.8.8.7.5 1 1.4 1 2.5 0 .8-.1 1.5-.5 2s-1 .9-1.7 1l2.5 4.3v.2l-.1.2-.2.1h-.8l-.4-.1-.2-.3-2.3-4H202v4c0 .2 0 .2-.2.3l-.2.1h-.8Zm1.2-5.8h2.6c.8 0 1.4-.2 1.8-.5.4-.4.6-.9.6-1.5 0-.7-.2-1.2-.6-1.5-.4-.4-1-.5-1.8-.5H202v4Zm11.9 6c-1.1 0-2-.4-2.6-1-.7-.7-1-1.6-1.1-2.8a7 7 0 0 1 0-1c0-.9.2-1.5.5-2 .3-.7.7-1.1 1.3-1.4.5-.3 1.2-.5 1.9-.5.8 0 1.5.2 2 .5.6.4 1 .9 1.3 1.5.3.6.4 1.4.4 2.2v.3l-.1.3h-5.8v.1c0 .5.1 1 .3 1.3l.7 1c.4.2.7.3 1.2.3a2.3 2.3 0 0 0 1.9-1l.2-.1.3-.1h.7l.3.1s.1.1 0 .2c0 .2 0 .4-.2.6-.1.3-.4.5-.7.7a4 4 0 0 1-2.5.8Zm-2.2-5h4.4c0-.5-.1-1-.3-1.3a2 2 0 0 0-2-1.2 2 2 0 0 0-1.1.3 2 2 0 0 0-.7 1 3 3 0 0 0-.3 1.2Zm8.2 4.8h-.3V651l.3-.1h.7l.3.1v.8l1-.8c.4-.2.8-.3 1.4-.3 1.2 0 2 .5 2.5 1.5.3-.4.6-.8 1-1 .6-.3 1-.5 1.7-.5.5 0 1 .2 1.5.4.4.3.8.7 1 1.2.3.5.5 1.1.5 2v4.5l-.1.3-.3.1h-1l-.1-.4v-4.4c0-.6-.1-1.1-.3-1.4-.2-.4-.4-.6-.7-.8l-1-.2a2 2 0 0 0-.8.2c-.2.2-.5.4-.7.8a3 3 0 0 0-.3 1.4v4.7l-.3.1h-1l-.1-.4v-4.4c0-.6-.1-1.1-.3-1.4-.2-.4-.4-.6-.7-.8a2 2 0 0 0-1.8 0c-.3.2-.5.4-.7.8a3 3 0 0 0-.3 1.3v4.8l-.3.1h-.8Zm17.2.2c-1.1 0-2-.4-2.7-1-.6-.7-1-1.6-1-2.8a7 7 0 0 1 0-1c0-.9.2-1.5.5-2 .3-.7.7-1.1 1.3-1.4.5-.3 1.1-.5 1.9-.5.8 0 1.4.2 2 .5.5.4 1 .9 1.3 1.5.2.6.4 1.4.4 2.2v.3l-.1.3h-5.8v.1c0 .5.1 1 .3 1.3.1.4.4.7.7 1 .3.2.7.3 1.2.3a2.3 2.3 0 0 0 1.9-1l.2-.1.2-.1h.8l.3.1v.2c0 .2 0 .4-.2.6l-.7.7a4 4 0 0 1-2.5.8Zm-2.2-5h4.4c0-.5-.1-1-.3-1.3a2 2 0 0 0-2-1.2 2 2 0 0 0-1.1.3 2 2 0 0 0-.8 1 3 3 0 0 0-.2 1.2Zm8.2 4.8h-.3l-.1-.4v-7.5l.1-.3.3-.1h.7l.2.1.2.3v.5c.2-.3.5-.6.9-.8.4-.2.8-.3 1.3-.3 1.2 0 2 .5 2.6 1.5.2-.4.6-.8 1-1 .5-.3 1-.5 1.7-.5.5 0 1 .2 1.5.4.4.3.8.7 1 1.2.3.5.4 1.1.4 2v4.8l-.3.1h-1.1V654.3c0-.6-.1-1.1-.3-1.4-.2-.4-.4-.6-.7-.8l-1-.2a2 2 0 0 0-.8.2c-.3.2-.5.4-.7.8a3 3 0 0 0-.3 1.4v4.7l-.3.1H248V654.3c0-.6-.2-1.1-.3-1.4-.2-.4-.5-.6-.7-.8a2 2 0 0 0-1.8 0c-.3.2-.5.4-.7.8a3 3 0 0 0-.3 1.3v4.5l-.1.3-.3.1h-.7Zm18 .2c-.7 0-1.2-.1-1.7-.4l-1-.8v.6l-.1.3-.3.1h-1V648l.3-.1h1l.1.3v3.7l1-.8c.5-.3 1-.4 1.6-.4.6 0 1.1.1 1.6.4.4.2.7.4 1 .8l.6 1.2c.2.5.2 1 .2 1.5a7.5 7.5 0 0 1-.2 2.4c-.1.4-.3.9-.6 1.2-.3.4-.6.7-1 .9-.5.2-1 .3-1.6.3Zm-.4-1.3c.5 0 1-.1 1.3-.4.3-.2.5-.5.7-1l.2-1.2v-1c0-.4 0-.8-.2-1.2a2 2 0 0 0-.7-.9 2 2 0 0 0-1.3-.4 2.1 2.1 0 0 0-2 1.3 3 3 0 0 0-.3 1 10.8 10.8 0 0 0 0 1.3l.3 1.2.7 1c.3.2.8.3 1.3.3Zm9 1.3c-1 0-2-.4-2.6-1-.6-.7-1-1.6-1-2.8a7 7 0 0 1 0-1c0-.9.2-1.5.5-2 .3-.7.7-1.1 1.2-1.4.6-.3 1.2-.5 2-.5s1.4.2 2 .5c.5.4 1 .9 1.2 1.5.3.6.5 1.4.5 2.2v.3l-.1.3h-5.8v.1c0 .5 0 1 .3 1.3.1.4.4.7.7 1 .3.2.7.3 1.1.3a2.3 2.3 0 0 0 2-1l.2-.1.2-.1h.8l.3.1v.2c0 .2 0 .4-.2.6l-.7.7a4 4 0 0 1-2.6.8Zm-2.1-5h4.4c0-.5-.1-1-.3-1.3a2 2 0 0 0-2-1.2 2 2 0 0 0-1.1.3 2 2 0 0 0-.8 1 3 3 0 0 0-.2 1.2Zm8.2 4.8h-.3l-.1-.4V651l.4-.1h.7l.3.1v1c.3-.4.6-.7 1-.8a3 3 0 0 1 1.3-.3h.6l.3.1v1.2h-1.3c-.5 0-1 .2-1.3.6-.3.3-.5.8-.5 1.3v5l-.4.1h-.7Zm9.6 0h-.3V651l.3-.1h.7l.3.1v.8l1-.8c.4-.2.8-.3 1.3-.3 1.2 0 2.1.5 2.6 1.5.2-.4.6-.8 1-1 .5-.3 1-.5 1.7-.5.5 0 1 .2 1.5.4.4.3.8.7 1 1.2.3.5.4 1.1.4 2v4.8l-.3.1h-1l-.1-.4v-4.4c0-.6-.1-1.1-.3-1.4-.2-.4-.4-.6-.7-.8l-1-.2a2 2 0 0 0-.8.2c-.3.2-.5.4-.7.8a3 3 0 0 0-.3 1.4v4.7l-.3.1h-1.1V654.3c0-.6-.1-1.1-.3-1.4-.2-.4-.4-.6-.7-.8a2 2 0 0 0-1.8 0c-.3.2-.5.4-.7.8a3 3 0 0 0-.3 1.3v4.5l-.1.3-.3.1h-.7Zm17.1.2c-1 0-2-.4-2.6-1-.6-.7-1-1.6-1-2.8a7 7 0 0 1 0-1c0-.9.2-1.5.5-2 .3-.7.7-1.1 1.2-1.4.6-.3 1.2-.5 2-.5s1.4.2 2 .5c.5.4 1 .9 1.2 1.5.3.6.5 1.4.5 2.2v.3l-.1.3h-5.8v.1c0 .5 0 1 .3 1.3.1.4.4.7.7 1 .3.2.7.3 1.1.3a2.3 2.3 0 0 0 2-1l.2-.1.2-.1h.8l.3.1v.2c0 .2 0 .4-.2.6l-.7.7a4 4 0 0 1-2.6.8Zm-2.1-5h4.4c0-.5-.1-1-.3-1.3a2 2 0 0 0-2-1.2 2 2 0 0 0-1.1.3 2 2 0 0 0-.8 1 3 3 0 0 0-.2 1.2Zm15.1 5a4 4 0 0 1-2-.5c-.6-.3-1-.7-1.3-1.3-.3-.5-.4-1.2-.4-1.9a11.8 11.8 0 0 1 0-1.3c0-.8.1-1.4.4-2 .3-.5.8-.9 1.3-1.2a4 4 0 0 1 2-.5 4 4 0 0 1 2 .5c.6.3 1 .7 1.3 1.3.3.5.4 1.1.5 1.9a11.3 11.3 0 0 1 0 1.3c0 .7-.2 1.4-.5 2-.3.5-.7.9-1.3 1.2a4 4 0 0 1-2 .5Zm0-1.3a2 2 0 0 0 1.6-.6c.4-.4.6-1 .6-1.8a9.2 9.2 0 0 0 0-1.3c0-.8-.2-1.4-.6-1.8a2 2 0 0 0-1.6-.6c-.6 0-1.2.2-1.6.6-.4.4-.6 1-.6 1.8a9.2 9.2 0 0 0 0 1.3c0 .8.2 1.4.6 1.8.4.4 1 .6 1.6.6Zm6.2 1.1h-.3l-.1-.4V651l.4-.1h.7l.3.1v1l1.1-1c.4-.2 1-.3 1.7-.3.6 0 1.2.2 1.7.5s.9.7 1.1 1.3c.3.5.4 1.1.4 1.8v4.5l-.1.3-.3.1h-1l-.1-.4v-4.4c0-.7-.2-1.3-.6-1.7-.3-.5-.9-.7-1.6-.7-.6 0-1.2.2-1.6.7-.4.4-.6 1-.6 1.7v4.7l-.3.1h-.8Zm16.1 0c-.6 0-1-.1-1.4-.3a2 2 0 0 1-.8-1 4 4 0 0 1-.3-1.5v-4.2H334l-.2-.1-.1-.3v-.8l.3-.1h1.3V648l.4-.1h1v3h2l.3.1.1.3v.8h-2.3v4.2c0 .5 0 .9.2 1.2.2.3.5.4 1 .4h1l.2.1.1.3v.5l-.1.3-.3.1h-1Zm3.4 0h-.3V648l.3-.1h1.1v4l1.1-.8c.4-.3 1-.4 1.6-.4.7 0 1.3.2 1.8.5s.8.7 1 1.3c.3.5.5 1.1.5 1.8v4.5l-.1.3-.3.1h-1.1V654.3c0-.7-.3-1.3-.6-1.7-.4-.5-1-.7-1.6-.7-.7 0-1.2.2-1.6.7-.4.4-.6 1-.6 1.7v4.4l-.1.3-.3.1h-.8Zm9.7 0h-.2l-.1-.4V651l.3-.1h.8l.3.1v8.1l-.3.1h-.8Zm0-9.9h-.4v-1.4l.3-.2h1c.1 0 .2 0 .3.2v1.3l-.3.1h-1Zm6.4 10c-.6 0-1 0-1.5-.2l-1-.5-.7-.6c0-.3-.2-.4-.2-.5 0-.2 0-.3.2-.3l.2-.1H355.2l.1.1.5.5.6.4 1 .1c.5 0 1-.1 1.3-.3.3-.2.5-.5.5-1 0-.2 0-.4-.2-.6l-.8-.4-1.5-.4-1.5-.5a2 2 0 0 1-.8-.8c-.2-.3-.2-.7-.2-1 0-.5 0-.8.3-1.2.2-.4.6-.7 1-1 .5-.2 1-.3 1.8-.3l1.4.2a3.2 3.2 0 0 1 1.5 1.2c.2.2.2.3.2.5v.3h-1.2l-.1-.1-.4-.4c-.1-.2-.3-.3-.6-.4l-.9-.1c-.5 0-.9.1-1.1.3a1 1 0 0 0-.5.9l.2.5c.1.2.4.3.7.5l1.5.4c.7.1 1.2.3 1.6.5.4.3.7.5.9.9a2.2 2.2 0 0 1-.1 2.3l-1.2.9c-.5.2-1.1.3-1.9.3Zm12.3 0c-.6 0-1.1 0-1.6-.2a3 3 0 0 1-1-.9 4 4 0 0 1-.6-1.2 6.4 6.4 0 0 1-.3-2 7.5 7.5 0 0 1 .3-1.9l.6-1.2c.3-.4.6-.6 1-.8.5-.3 1-.4 1.6-.4.6 0 1.1.1 1.5.4.5.2.8.5 1 .8v-3.7s0-.2.2-.2l.2-.1h1.1V659.2l-.3.1h-1v-1l-1.1.8c-.5.3-1 .4-1.6.4Zm.3-1.2c.5 0 1-.1 1.3-.4.3-.2.5-.5.7-1 .2-.3.2-.7.3-1a10.5 10.5 0 0 0 0-1.3c0-.4-.1-.8-.3-1.1l-.7-1a2 2 0 0 0-1.3-.3 2 2 0 0 0-1.3.4 2 2 0 0 0-.7 1l-.2 1.2v1c0 .4 0 .8.2 1.2l.7 1c.3.2.8.3 1.3.3Zm9.5 1.3c-1.1 0-2-.4-2.7-1-.6-.7-1-1.6-1-2.8a7.5 7.5 0 0 1 0-1c0-.9.2-1.5.5-2 .3-.7.7-1.1 1.3-1.4.5-.3 1.1-.5 1.9-.5.8 0 1.4.2 2 .5.5.4 1 .9 1.3 1.5.2.6.4 1.4.4 2.2v.3l-.1.3h-5.8v.1c0 .5.1 1 .3 1.3.1.4.4.7.7 1 .3.2.7.3 1.2.3a2.3 2.3 0 0 0 1.9-1l.2-.1.2-.1h.8l.3.1v.2c0 .2 0 .4-.2.6l-.7.7a4 4 0 0 1-2.5.8Zm-2.2-5h4.4c0-.5-.1-1-.3-1.3a2 2 0 0 0-2-1.2 2 2 0 0 0-1.1.3 2 2 0 0 0-.8 1 3 3 0 0 0-.2 1.2Zm10.4 4.8-.4-.1-.2-.3-3-7.4v-.2a.3.3 0 0 1 .4-.3h1l.1.3 2.5 6.3 2.4-6.3.1-.2.3-.1h1l.1.3v.2l-3 7.4-.2.3-.4.1h-.7Zm6.3 0h-.2l-.1-.4V651l.3-.1h.8l.3.1v8.1l-.3.1h-.8Zm0-9.9h-.4v-1.4l.3-.2h1c.1 0 .2 0 .3.2v1.3l-.3.1h-1Zm7 10c-.8 0-1.5 0-2-.4-.6-.3-1-.7-1.3-1.2-.3-.6-.5-1.2-.5-2a9.8 9.8 0 0 1 0-1.3c0-.8.2-1.4.5-2 .3-.5.7-1 1.2-1.2a4 4 0 0 1 2-.5c.6 0 1.2.1 1.6.3l1.1.6a2.7 2.7 0 0 1 .9 1.8l-.1.2-.3.1h-1l-.2-.3c-.2-.5-.4-.9-.7-1-.4-.3-.8-.4-1.3-.4-.6 0-1.1.2-1.5.6-.4.4-.7 1-.7 1.9v1.1c0 .9.3 1.5.7 2 .4.3.9.5 1.5.5.5 0 1-.1 1.3-.3.3-.2.5-.6.7-1.1l.2-.3h1.3v.3a2.4 2.4 0 0 1-.5 1.4 3 3 0 0 1-1.7 1.1l-1.3.2Zm8.7 0c-1.1 0-2-.3-2.6-1-.7-.6-1-1.5-1.1-2.7a7 7 0 0 1 0-1c0-.9.2-1.5.5-2 .3-.7.8-1.1 1.3-1.4.5-.3 1.2-.5 1.9-.5.8 0 1.5.2 2 .5.6.4 1 .9 1.3 1.5.3.6.4 1.4.4 2.2v.6h-5.9v.1c0 .5.1 1 .3 1.3l.7 1c.4.2.7.3 1.2.3a2.3 2.3 0 0 0 1.9-1l.2-.1.3-.1h.7l.3.1s.1.1 0 .2c0 .2 0 .4-.2.6-.1.3-.4.5-.7.7a4 4 0 0 1-2.5.8Zm-2.2-4.9h4.4c0-.5 0-1-.3-1.3a2 2 0 0 0-2-1.2 2 2 0 0 0-1 .3 2 2 0 0 0-.8 1 3 3 0 0 0-.3 1.2Z"/><path fill="#858EBD" fill-rule="evenodd" d="M186 645.2h-14a2 2 0 0 0-2 2v14c0 1.1.9 2 2 2h14a2 2 0 0 0 2-2v-14a2 2 0 0 0-2-2Zm-8.3 13.3a1 1 0 0 1-1.4 0l-3.6-3.6a1 1 0 1 1 1.4-1.4l2.9 2.9 6.9-6.9a1 1 0 1 1 1.4 1.4l-7.6 7.6Z" clip-rule="evenodd"/><g clip-path="url(#g)"><g filter="url(#h)"><rect width="185.5" height="40.3" x="167" y="849.7" fill="#fff" rx="20.1"/></g><path fill="#3A3F63" d="m238.6 874.7-.3-.1V863.6h7.5l.2.3v1.1c0 .1 0 .2-.2.3l-.2.1h-5.2v3h4.8c.2 0 .2 0 .3.2l.1.3v1.3l-.4.2h-4.8v4.2l-.4.1h-1.4Zm11 .2c-.5 0-1-.1-1.4-.4a3 3 0 0 1-1.1-.8c-.3-.4-.4-.8-.4-1.3 0-.7.3-1.3.9-1.8.6-.4 1.4-.7 2.4-.9l2.2-.3v-.3c0-.5-.1-.8-.4-1-.2-.3-.6-.4-1.1-.4-.4 0-.7 0-1 .2l-.5.6c0 .2-.2.2-.3.2h-1.6v-.3l.1-.6.7-.7c.2-.3.6-.5 1-.6a4.9 4.9 0 0 1 3.3 0c.5.1.8.4 1.1.6.3.3.5.6.6 1 .2.4.2.8.2 1.2v5.3l-.4.1h-1.3l-.2-.1-.1-.3v-.6a2.6 2.6 0 0 1-1.5 1l-1.1.2Zm.6-1.6c.4 0 .7 0 1-.2.3-.2.6-.4.7-.7.2-.4.3-.8.3-1.3v-.3l-1.6.2c-.6.1-1.1.3-1.4.5-.3.2-.5.5-.5.8 0 .2 0 .4.2.6l.6.3.7.1Zm9.8 1.6c-.8 0-1.5-.2-2-.5-.6-.3-1-.7-1.4-1.2-.3-.6-.5-1.2-.5-2a10.3 10.3 0 0 1 0-1.3c0-.8.2-1.4.5-2 .3-.5.8-1 1.3-1.2a4.7 4.7 0 0 1 3.8-.1c.5.1.9.3 1.2.6a3 3 0 0 1 1 1.8c0 .1 0 .2-.2.3h-1.9l-.2-.2c-.1-.5-.3-.8-.6-1l-1-.2c-.5 0-1 .2-1.3.5-.3.3-.4.9-.5 1.6v1.1c0 .7.2 1.3.5 1.6.4.3.8.5 1.3.5.4 0 .8 0 1-.3.3-.1.5-.4.6-.9l.2-.2h1.9l.2.3-.2.7-.4.7a3.5 3.5 0 0 1-1.9 1.2 5 5 0 0 1-1.4.2Zm9.1 0c-1.2 0-2.1-.4-2.8-1-.7-.7-1-1.7-1.1-3a4 4 0 0 1 0-.8c0-.8.2-1.5.5-2 .3-.6.8-1 1.4-1.4.5-.3 1.2-.5 2-.5a4 4 0 0 1 2.2.6c.6.3 1 .8 1.3 1.5.3.6.5 1.3.5 2.2v.3c0 .1 0 .2-.2.3H267.3v.2c0 .4.1.7.3 1 0 .4.3.6.5.8.3.2.6.3 1 .3l.7-.1a2 2 0 0 0 .8-.7l.2-.2h1.9l.1.3c0 .2 0 .4-.2.6a3 3 0 0 1-.7.8l-1.2.5c-.5.2-1 .3-1.6.3Zm-1.8-5h3.6v-.1c0-.4 0-.8-.2-1.1l-.6-.7c-.3-.2-.6-.3-1-.3s-.7 0-1 .3l-.6.7-.2 1v.1Zm12 5c-.6 0-1-.1-1.5-.4-.4-.2-.7-.4-1-.8v.6l-.1.3-.3.1h-1.2l-.3-.1-.1-.3V863.5l.4-.2h1.3c.1 0 .2 0 .3.2l.1.2v3.6a3 3 0 0 1 2.5-1c.5 0 1 0 1.4.2.4.2.8.5 1 .8.4.4.6.8.7 1.2l.3 1.5a9.3 9.3 0 0 1-.3 2.6c-.1.5-.3.9-.6 1.2l-1 .8-1.5.3Zm-.5-1.7c.4 0 .8-.1 1-.3.3-.2.5-.5.6-.8l.2-1v-1l-.2-1c-.1-.4-.3-.7-.6-.9-.2-.2-.6-.3-1-.3-.5 0-.8.1-1 .3l-.7.8-.2.9a12 12 0 0 0 0 1.2c0 .3 0 .7.2 1l.6.8c.3.2.6.3 1 .3Zm9.4 1.7c-.8 0-1.5-.2-2.1-.5-.6-.3-1-.7-1.3-1.2-.3-.6-.5-1.2-.6-2a12.7 12.7 0 0 1 0-1.4c0-.7.3-1.3.6-1.9.3-.5.7-1 1.3-1.2.6-.3 1.3-.5 2.1-.5.9 0 1.6.2 2.2.5.5.3 1 .7 1.3 1.2.3.6.5 1.2.5 2a13.7 13.7 0 0 1 0 1.4c0 .7-.2 1.3-.5 1.9a3 3 0 0 1-1.3 1.2c-.6.3-1.3.5-2.2.5Zm0-1.6c.6 0 1-.2 1.4-.5.3-.4.4-1 .5-1.6a10.3 10.3 0 0 0 0-1.3c0-.7-.2-1.2-.5-1.5-.4-.4-.8-.6-1.4-.6-.5 0-1 .2-1.3.6-.3.3-.4.8-.5 1.5a9.5 9.5 0 0 0 0 1.3c0 .7.2 1.2.5 1.6.3.3.8.5 1.3.5Zm9.5 1.6c-.8 0-1.6-.2-2.1-.5-.6-.3-1-.7-1.4-1.2-.3-.6-.4-1.2-.5-2a13.7 13.7 0 0 1 0-1.4c0-.7.2-1.3.5-1.9.4-.5.8-1 1.4-1.2.6-.3 1.3-.5 2.1-.5s1.6.2 2.1.5c.6.3 1 .7 1.4 1.2.3.6.5 1.2.5 2a12.7 12.7 0 0 1 0 1.4c0 .7-.2 1.3-.5 1.9a3 3 0 0 1-1.3 1.2c-.6.3-1.3.5-2.2.5Zm0-1.6c.6 0 1-.2 1.3-.5.3-.4.5-1 .5-1.6a9.5 9.5 0 0 0 0-1.3c0-.7-.2-1.2-.5-1.5-.3-.4-.7-.6-1.3-.6-.6 0-1 .2-1.3.6-.3.3-.5.8-.5 1.5a10.3 10.3 0 0 0 0 1.3c0 .7.2 1.2.5 1.6.3.3.7.5 1.3.5Zm6.2 1.4-.3-.1v-11.1l.3-.2h1.3c.1 0 .2 0 .3.2v5.7l2.8-2.5.2-.2.4-.1h1.7l.1.3v.2l-.2.1-3.3 3.1 3.7 4c.2 0 .2.2.2.3l-.1.2-.2.1H308.9l-.3-.3-3-3.2v3.1l-.1.3-.3.1h-1.3Z"/><path fill="#1877F2" d="M228 869.8a10 10 0 0 0-10-10 10 10 0 0 0-10 10c0 5 3.7 9.2 8.4 10v-7.1H214v-3h2.5v-2.1c0-2.6 1.5-4 3.8-4l2.3.2v2.5h-1.3c-1.3 0-1.6.8-1.6 1.6v1.9h2.7l-.4 2.9h-2.3v7a10 10 0 0 0 8.4-10Z"/></g><g clip-path="url(#i)"><g filter="url(#j)"><rect width="185.5" height="40.3" x="381.2" y="849.7" fill="#fff" rx="20.1"/></g><path fill="#3A3F63" d="M466.6 874.9c-1 0-1.8-.2-2.5-.5-.7-.4-1.2-.9-1.6-1.5a5 5 0 0 1-.6-2.3 61.7 61.7 0 0 1 0-3c0-.9.2-1.7.6-2.3.4-.6 1-1.1 1.6-1.4.7-.4 1.5-.6 2.5-.6a6 6 0 0 1 2 .4c.6.2 1.1.4 1.5.8.4.3.7.6.9 1l.3 1v.3H469l-.2-.2a2.3 2.3 0 0 0-1.1-1.2l-1.2-.2c-.7 0-1.3.2-1.7.6-.5.3-.7 1-.7 1.9v2.8c0 .9.2 1.5.7 2 .4.3 1 .5 1.7.5.5 0 1 0 1.3-.2l1-.8.2-1.4v-.5h-2l-.2-.1v-1.5H471.3l.1.3v1.7c0 1-.2 1.7-.6 2.3-.4.7-1 1.2-1.7 1.5-.7.4-1.5.6-2.5.6Zm10.3 0c-.8 0-1.5-.2-2.1-.5-.6-.3-1-.7-1.3-1.2-.3-.6-.5-1.2-.6-2a13.7 13.7 0 0 1 0-1.4c0-.7.3-1.3.6-1.9.3-.5.7-1 1.3-1.2.6-.3 1.3-.5 2.1-.5.9 0 1.6.2 2.2.5.5.3 1 .7 1.3 1.2.3.6.5 1.2.5 2a12.7 12.7 0 0 1 0 1.4c0 .7-.2 1.3-.5 1.9a3 3 0 0 1-1.3 1.2c-.6.3-1.3.5-2.2.5Zm0-1.6c.6 0 1-.2 1.4-.5.3-.4.4-1 .5-1.6a9.5 9.5 0 0 0 0-1.3c0-.7-.2-1.2-.5-1.5-.4-.4-.8-.6-1.4-.6-.5 0-1 .2-1.3.6-.3.3-.5.8-.5 1.5a10.3 10.3 0 0 0 0 1.3c0 .7.2 1.2.5 1.6.3.3.8.5 1.3.5Zm9.5 1.6c-.8 0-1.6-.2-2.2-.5-.5-.3-1-.7-1.3-1.2-.3-.6-.4-1.2-.5-2a12.7 12.7 0 0 1 0-1.4c0-.7.2-1.3.5-1.9.4-.5.8-1 1.4-1.2.6-.3 1.3-.5 2.1-.5s1.5.2 2.1.5c.6.3 1 .7 1.4 1.2.3.6.5 1.2.5 2a12.7 12.7 0 0 1 0 1.4c0 .7-.2 1.3-.5 1.9a3 3 0 0 1-1.3 1.2c-.6.3-1.3.5-2.2.5Zm0-1.6c.6 0 1-.2 1.3-.5.3-.4.5-1 .5-1.6a9.5 9.5 0 0 0 0-1.3c0-.7-.2-1.2-.5-1.5-.3-.4-.7-.6-1.3-.6-.6 0-1 .2-1.3.6-.3.3-.5.8-.5 1.5a9.5 9.5 0 0 0 0 1.3c0 .7.2 1.2.5 1.6.3.3.7.5 1.3.5Zm9.6 5c-.8 0-1.5-.2-2-.4s-.9-.4-1.1-.7a3 3 0 0 1-.7-.9l-.2-.6.1-.3.3-.1h1.7l.1.3.3.5.5.4.9.1 1-.1.6-.6c.2-.3.3-.7.3-1.2v-1l-1 .7c-.4.2-1 .3-1.5.3-.6 0-1-.1-1.5-.3a3 3 0 0 1-1-.8c-.3-.3-.5-.7-.7-1.2a6 6 0 0 1-.2-1.5v-.9c0-.5 0-1 .2-1.5l.6-1.2a3 3 0 0 1 1.1-.8c.4-.2 1-.3 1.5-.3a3 3 0 0 1 2.5 1.2v-.6c0-.1 0-.2.2-.3l.2-.1h1.3l.3.1.1.3v7.7c0 .8-.1 1.4-.4 2a3 3 0 0 1-1.3 1.3c-.6.3-1.3.4-2.2.4Zm-.1-5.3c.4 0 .8-.1 1-.3.3-.2.5-.5.6-.8.2-.3.2-.6.3-1a7.5 7.5 0 0 0 0-1l-.3-.9c-.1-.3-.3-.6-.6-.8-.2-.2-.6-.3-1-.3-.5 0-.8.1-1 .3l-.7.8a4.7 4.7 0 0 0 0 2.9l.6.8c.3.2.6.3 1 .3Zm6.6 1.7-.3-.1-.1-.3V863.5l.4-.2h1.3s.2 0 .3.2v11.1l-.3.1h-1.3Zm7.4.2c-1.2 0-2.1-.4-2.8-1-.7-.7-1.1-1.7-1.2-3a4.4 4.4 0 0 1 0-.8c0-.8.3-1.5.6-2 .3-.6.8-1 1.3-1.4.6-.3 1.3-.5 2-.5a4 4 0 0 1 2.3.6c.5.3 1 .8 1.3 1.5.3.6.4 1.3.4 2.2v.6H508v.2c0 .4 0 .7.2 1l.6.8c.3.2.6.3 1 .3l.7-.1a2 2 0 0 0 .8-.7l.2-.2h1.9l.1.3-.3.6a3 3 0 0 1-.7.8l-1.1.5c-.5.2-1 .3-1.6.3Zm-1.8-5h3.6v-.1c0-.4-.1-.8-.3-1.1 0-.3-.3-.6-.6-.7-.2-.2-.6-.3-1-.3-.3 0-.6 0-.9.3-.3.1-.5.4-.6.7l-.2 1v.1Z"/><path fill="#fff" d="M422 869.9c0-6.7 6.3-12.1 14.3-12.1s14.3 5.4 14.3 12c0 6.7-6.4 12.1-14.3 12.1-8 0-14.4-5.4-14.4-12Z"/><path fill="#EA4335" d="M436.7 864.4c2.1 0 3.5.8 4.3 1.4l3.2-2.6a12 12 0 0 0-7.5-2.4c-4.4 0-8.2 2.1-10 5.2l3.6 2.4c1-2.3 3.4-4 6.4-4Z"/><path fill="#4285F4" d="M447.5 870.4c0-.7-.1-1.3-.3-1.9h-10.5v3.5h6.2c-.1.9-.8 2.2-2.3 3l3.5 2.4c2.1-1.7 3.4-4.1 3.4-7Z"/><path fill="#FBBC05" d="M430.3 872a5 5 0 0 1 0-3.6l-3.6-2.4a8.2 8.2 0 0 0-1.2 4.2c0 1.5.4 3 1.2 4.2l3.6-2.3Z"/><path fill="#34A853" d="M436.7 879.6c3 0 5.6-.8 7.4-2.2l-3.5-2.3c-1 .5-2.2.9-3.9.9-3 0-5.5-1.6-6.4-4l-3.6 2.4c1.9 3.1 5.6 5.2 10 5.2Z"/></g><rect width="741" height="54" x="167.5" y="564" fill="#fff" stroke="#D9E1EC" rx="3.5"/><path fill="#3A3F63" d="m168.8 554.5-.3-.1-.1-.3v-10.7l.4-.1h4a5 5 0 0 1 2 .3c.7.3 1.1.7 1.4 1.2.4.5.5 1.1.5 1.9 0 .7-.1 1.4-.5 1.9a3 3 0 0 1-1.3 1.1 5 5 0 0 1-2 .4h-3v4.3h-1.1Zm1.2-5.8h2.7c.8 0 1.4-.1 1.8-.5.4-.3.6-.8.6-1.5a2 2 0 0 0-.6-1.6c-.3-.3-1-.5-1.8-.5H170v4.1Zm10.6 6c-.5 0-1-.2-1.4-.4-.5-.2-.8-.5-1.1-.9a2 2 0 0 1-.4-1.2c0-.7.3-1.3.9-1.8.6-.4 1.4-.7 2.3-.8l2.4-.4v-.4c0-.5-.1-1-.4-1.2-.3-.3-.8-.5-1.5-.5-.4 0-.8.1-1.1.3-.3.2-.5.5-.6.8l-.4.2h-1v-.3l.1-.6.6-.7 1-.6a4 4 0 0 1 1.5-.2c.6 0 1.1 0 1.6.2a2.5 2.5 0 0 1 1.5 1.6c.2.4.2.7.2 1.1v5.5H183.3v-1a3 3 0 0 1-.6.6 3.2 3.2 0 0 1-2.2.6Zm.3-1.3c.5 0 .9 0 1.2-.3.4-.1.7-.4.9-.8.2-.4.3-1 .3-1.5v-.5l-1.8.3c-.8.1-1.4.3-1.8.5-.3.3-.5.6-.5 1 0 .3 0 .5.2.7l.7.5.8.1Zm9.1 1.2c-.6 0-1.1 0-1.5-.2-.5-.2-.8-.3-1-.6l-.7-.6-.2-.5.1-.3h1.3l.4.5.7.4 1 .1c.5 0 1 0 1.3-.3.3-.2.5-.5.5-.9 0-.3 0-.5-.2-.6l-.8-.5a13 13 0 0 0-1.5-.4l-1.5-.5a2 2 0 0 1-.8-.8c-.2-.3-.3-.6-.3-1s.2-.8.4-1.2l1-.9c.5-.2 1-.3 1.7-.3.6 0 1 0 1.4.2a3.1 3.1 0 0 1 1.6 1.1l.2.5v.3l-.3.1H191.9l-.1-.2-.4-.4-.6-.3-.9-.2c-.5 0-1 .2-1.2.4a1 1 0 0 0-.4.8c0 .2 0 .4.2.6.1.1.3.3.7.4l1.4.4c.7.2 1.3.3 1.7.6.4.2.7.5.9.8a2.2 2.2 0 0 1-.2 2.3c-.2.4-.6.7-1.1.9-.5.2-1.2.3-1.9.3Zm8.2 0c-.6 0-1.2 0-1.6-.2-.4-.2-.8-.3-1-.6l-.6-.6c-.2-.2-.2-.4-.2-.5v-.3h1.3l.5.5.6.4 1 .1c.5 0 1 0 1.3-.3.4-.2.5-.5.5-.9 0-.3 0-.5-.2-.6-.1-.2-.4-.3-.7-.5a13 13 0 0 0-1.5-.4c-.7-.1-1.2-.3-1.6-.5a2 2 0 0 1-.8-.8l-.2-1 .3-1.2 1-.9c.5-.2 1-.3 1.8-.3.5 0 1 0 1.4.2a3.1 3.1 0 0 1 1.6 1.1l.2.5-.1.3-.3.1H200v-.2l-.5-.4-.5-.3-1-.2c-.5 0-.9.2-1.1.4a1 1 0 0 0-.4.8c0 .2 0 .4.2.6l.6.4 1.5.4c.7.2 1.3.3 1.7.6.4.2.7.5.8.8a2.2 2.2 0 0 1-.1 2.3c-.3.4-.7.7-1.2.9-.5.2-1.1.3-1.8.3Zm7.2-.1-.3-.1-.2-.3-2.3-7.5v-.1l.1-.3h1.2l.1.2 1.8 6 2-6v-.2h1.2l.2.3 1.9 6 1.7-6c0-.1 0-.2.2-.3H213.9a.3.3 0 0 1 .4.3v.1l-2.3 7.5-.2.3h-1.3l-.2-.3-1.9-5.8-1.8 5.8-.2.3h-1Zm13.8.1a4 4 0 0 1-2-.4c-.5-.4-1-.8-1.2-1.3-.3-.6-.5-1.2-.5-2a11.8 11.8 0 0 1 0-1.3c0-.7.2-1.3.5-1.9.3-.5.7-1 1.2-1.3a4 4 0 0 1 2-.4 4 4 0 0 1 2 .4c.6.3 1 .8 1.3 1.3.3.6.5 1.2.5 2a12.2 12.2 0 0 1 0 1.3c0 .7-.2 1.3-.5 1.9-.3.5-.7 1-1.2 1.3a4 4 0 0 1-2 .4Zm0-1.2a2 2 0 0 0 1.6-.6c.4-.5.6-1 .7-1.9a10 10 0 0 0 0-1.2c0-.8-.3-1.4-.7-1.9a2 2 0 0 0-1.6-.6c-.6 0-1.2.2-1.6.6-.4.5-.6 1-.6 1.9a9.2 9.2 0 0 0 0 1.2c0 .8.2 1.4.6 1.9.4.4 1 .6 1.6.6Zm6.2 1h-.3v-8.2h1.3l.1.3v.7c.2-.3.5-.6.9-.8a3 3 0 0 1 1.3-.3h.7l.2.1.1.3V547.4l-.3.1h-1c-.6 0-1 .2-1.4.5-.3.4-.5.8-.5 1.4v5h-1.1Zm8.6.2c-.6 0-1.1 0-1.6-.3a3 3 0 0 1-1.6-2 6.4 6.4 0 0 1-.3-2 8.2 8.2 0 0 1 .3-2l.6-1.2 1-.8c.5-.2 1-.3 1.6-.3.6 0 1.1 0 1.5.3.4.2.8.5 1 .8v-3.6l.1-.3.3-.1h.8l.2.1.2.3V554s0 .2-.2.3h-1.2l-.1-.3v-.7l-1 .9c-.5.2-1 .3-1.6.3Zm.3-1.3c.5 0 1-.1 1.3-.3l.7-1 .3-1.1a9.7 9.7 0 0 0 0-1.3c0-.4-.2-.7-.3-1-.2-.4-.4-.7-.8-1a2 2 0 0 0-1.2-.3 2 2 0 0 0-1.3.3 2 2 0 0 0-.7 1l-.2 1.2v1c0 .4 0 .8.2 1.2.1.4.4.7.7 1 .3.2.8.3 1.3.3Z"/><path fill="#858EBD" fill-rule="evenodd" d="M881 583c-5 0-9.3 3-11 7.5a11.8 11.8 0 0 0 22 0c-1.7-4.4-6-7.5-11-7.5Zm0 12.5a5 5 0 1 1 0-10 5 5 0 0 1 0 10Zm0-8a3 3 0 1 0 0 6 3 3 0 0 0 0-6Z" clip-rule="evenodd"/></g><path fill="#3A3F63" d="m730.9 114-.9-.3c-.2-.3-.3-.5-.3-.9V81.6c0-.4.1-.6.3-.9l.9-.3h5c.6 0 1 .1 1.2.4l.5.5 11.7 18.5V81.6c0-.4.1-.6.4-.9.2-.2.5-.3.8-.3h5.8l.9.3c.2.3.3.5.3.9v31.2l-.3.9-.9.3h-5.1c-.6 0-1-.1-1.2-.4l-.4-.5-11.7-17.8v17.5c0 .4-.1.6-.4.9-.2.2-.5.3-.8.3h-5.8Zm34.5 0-.9-.3c-.2-.3-.3-.5-.3-.9V81.6c0-.4.1-.6.3-.9l.9-.3h22.4c.4 0 .7.1.9.3.2.3.3.5.3.9v4.5c0 .4 0 .7-.3.9-.2.2-.5.3-.9.3h-15.3v6.5h14.3c.3 0 .6.1.8.4.3.2.4.5.4.8v4.2c0 .3-.1.6-.4.9-.2.2-.5.3-.8.3h-14.3v6.7h15.7c.4 0 .6.1.9.3.2.2.3.5.3.9v4.5c0 .4-.1.6-.3.9-.3.2-.5.3-.9.3h-22.8Zm43 .5c-3 0-5.6-.5-7.8-1.5-2.1-1-3.8-2.4-5-4.3-1.3-2-2-4.4-2-7.3a177.5 177.5 0 0 1 0-8.3c0-2.9.7-5.3 2-7.2 1.2-2 2.9-3.5 5-4.5 2.3-1 4.8-1.5 7.7-1.5 2.9 0 5.4.5 7.6 1.5 2.2 1 4 2.5 5.2 4.5 1.2 2 1.9 4.3 2 7.2a92 92 0 0 1 0 8.3c-.1 3-.8 5.4-2 7.3-1.2 2-3 3.4-5.1 4.3-2.2 1-4.7 1.5-7.7 1.5Zm0-7c1.6 0 3-.4 4-1.5 1.1-1 1.7-2.6 1.8-4.9a88 88 0 0 0 0-7.8c-.1-1.5-.4-2.8-.9-3.7-.5-1-1.2-1.6-2-2.1-.9-.4-1.9-.7-3-.7-1 0-2 .3-3 .7-.8.5-1.5 1.2-2 2.1-.5 1-.8 2.2-.8 3.7a163.5 163.5 0 0 0 0 7.8c0 2.3.6 4 1.7 5 1 1 2.4 1.5 4.1 1.5ZM830 114c-.4 0-.7-.1-1-.3l-.2-.9V81.6c0-.4 0-.6.3-.9.2-.2.5-.3.9-.3h22c.3 0 .6.1.8.3.3.3.4.5.4.9v4.8c0 .4-.1.7-.4 1l-.8.2h-14.8v7.1H851c.4 0 .7.1.9.4.2.2.4.5.4.9v4.8c0 .3-.2.6-.4.8-.2.2-.5.4-.9.4h-13.8v10.8c0 .4-.1.6-.3.9-.3.2-.5.3-.9.3h-6Zm42.4.5c-2.8 0-5.4-.5-7.5-1.4-2.2-1-3.9-2.4-5-4.4-1.2-2-1.8-4.5-1.8-7.5V81.6c0-.4.1-.6.3-.9.2-.2.5-.3.9-.3h6.2c.3 0 .6.1.8.3.3.3.4.5.4.9v19.5c0 2.1.5 3.7 1.5 4.7s2.4 1.6 4.2 1.6c1.8 0 3.2-.5 4.2-1.6 1-1 1.6-2.6 1.6-4.7V81.6c0-.4 0-.6.3-.9.2-.2.5-.3.9-.3h6.2c.3 0 .6.1.8.3.3.3.4.5.4.9v19.6c0 3-.6 5.5-1.8 7.5-1.2 2-2.8 3.4-5 4.4a19 19 0 0 1-7.6 1.4Zm22-.5c-.4 0-.7-.1-1-.3l-.2-.9V81.6c0-.4 0-.6.3-.9.2-.2.5-.3.9-.3h5c.6 0 1 .1 1.2.4l.5.5 11.7 18.5V81.6c0-.4.1-.6.3-.9.2-.2.5-.3.9-.3h5.7c.4 0 .7.1 1 .3l.2.9v31.2c0 .3 0 .6-.3.9-.2.2-.5.3-.9.3h-5c-.6 0-1-.1-1.2-.4l-.5-.5-11.7-17.8v17.5c0 .4 0 .6-.3.9-.2.2-.5.3-.9.3h-5.7Zm34.5 0c-.4 0-.7-.1-1-.3l-.2-.9V81.6c0-.4 0-.6.3-.9.2-.2.5-.3.9-.3h12.4c3.2 0 5.8.5 8 1.5 2.3 1 4 2.5 5.1 4.5 1.2 1.9 1.9 4.3 2 7.1a165.2 165.2 0 0 1 0 7.3c-.2 3-.8 5.5-2 7.4-1 2-2.7 3.4-4.9 4.4a20 20 0 0 1-8 1.4H929Zm7.3-7h5.1c1.4 0 2.5-.1 3.4-.5 1-.5 1.7-1.2 2.1-2.1.5-1 .7-2.1.8-3.6a36.6 36.6 0 0 0 0-7.2c0-2.2-.7-3.8-1.8-4.8-1-1-2.6-1.5-4.7-1.5h-4.9v19.8Zm-490.7 87c-.4 0-.7-.1-1-.3l-.2-.9v-31.2c0-.4 0-.6.3-.9.2-.2.5-.3.9-.3h22l.9.3c.2.3.3.5.3.9v4.8c0 .4 0 .7-.3 1l-1 .2h-14.7v7.1h13.8c.4 0 .7.1.9.4.3.2.4.5.4.9v4.8c0 .3-.2.6-.4.8-.2.2-.5.4-.9.4h-13.8v10.8c0 .4-.1.6-.3.9-.3.2-.5.3-.9.3h-6Zm29 0c-.3 0-.6-.1-.8-.3-.2-.3-.3-.5-.3-.9v-22.6c0-.3 0-.6.3-.8.2-.2.5-.4.9-.4h5.6c.3 0 .6.2.8.4.3.2.4.5.4.8v22.6c0 .4-.1.6-.4.9-.2.2-.5.3-.8.3h-5.6Zm0-28.6c-.3 0-.6 0-.9-.3-.2-.2-.3-.5-.3-.9V160c0-.4.1-.7.3-.9.3-.3.6-.4 1-.4h5.6c.4 0 .7.1.9.4.2.2.4.5.4.9v4.2c0 .4-.2.7-.4.9-.2.2-.5.3-.9.3h-5.7ZM486 194c-.3 0-.5-.1-.7-.3a1.1 1.1 0 0 1-.3-1c0-.3.1-.4.2-.5l8-11-7.3-10.3-.2-.4v-.4c0-.3 0-.5.3-.7.2-.2.5-.4.8-.4h5.8c.4 0 .7.1 1 .3l.4.6 4.5 6.1 4.4-6.1.5-.5c.2-.2.5-.4 1-.4h5.5c.3 0 .6.2.8.4.2.2.3.4.3.7v.4l-.2.4-7.5 10.3 8 11c.2.1.3.2.3.4v.3a1 1 0 0 1-1 1.1h-6.1c-.4 0-.7 0-.9-.2l-.5-.6-4.8-6.5-5 6.5c0 .2-.2.3-.4.5s-.5.3-1 .3H486Zm42.9 9.1a1 1 0 0 1-1-1v-.3l.1-.3 3.8-9-9.3-21.8-.1-.6c0-.3.2-.5.4-.7.2-.2.4-.4.7-.4h5.5c.4 0 .7.2.9.4l.4.6 5.5 14 5.6-14 .5-.6c.3-.2.6-.4 1-.4h5.4c.3 0 .5.2.7.4l.3.6-.1.7-13.6 31.4-.5.7c-.2.2-.5.3-1 .3H529Zm34.8-8.6c-2.7 0-5-.5-6.8-1.3a9.7 9.7 0 0 1-4.2-3.7c-1-1.6-1.5-3.6-1.6-5.8a43.6 43.6 0 0 1 0-4.3c0-2.3.7-4.2 1.7-5.8a10 10 0 0 1 4.3-3.7c1.8-1 4-1.3 6.6-1.3 2.6 0 4.9.4 6.7 1.3a10 10 0 0 1 4.3 3.7c1 1.6 1.6 3.5 1.7 5.8a41.8 41.8 0 0 1 0 4.3c0 2.2-.6 4.2-1.6 5.8a9.4 9.4 0 0 1-4.3 3.7c-1.8.8-4 1.3-6.8 1.3Zm0-5.9c1.5 0 2.5-.4 3.1-1.3a7 7 0 0 0 1.2-3.9 30.3 30.3 0 0 0 0-3.8c-.1-1.7-.5-3-1.2-3.8-.6-1-1.6-1.4-3-1.4-1.5 0-2.5.5-3.2 1.4-.7.8-1 2.1-1.1 3.8a30.3 30.3 0 0 0 0 3.8c0 1.8.4 3 1.1 4 .7.8 1.7 1.2 3.1 1.2Zm26.7 5.9c-1.8 0-3.5-.4-5-1.3-1.3-.8-2.4-2-3.2-3.6-.8-1.6-1.2-3.6-1.2-6v-13.4c0-.3 0-.6.3-.8.2-.2.5-.4.9-.4h6c.3 0 .6.2.8.4.3.2.4.5.4.8v13.1c0 3.2 1.4 4.7 4.2 4.7 1.3 0 2.4-.4 3.1-1.2.8-.8 1.2-2 1.2-3.5v-13c0-.4.1-.7.4-1 .2-.1.5-.3.8-.3h6c.4 0 .7.2.9.4.2.2.3.5.3.8v22.6c0 .4 0 .6-.3.9-.2.2-.5.3-.9.3h-5.5c-.4 0-.7-.1-1-.3l-.2-.9V191a8 8 0 0 1-3.3 2.6c-1.3.6-2.9.9-4.7.9Zm22.8-.5c-.4 0-.7-.1-.9-.3-.2-.3-.3-.5-.3-.9v-22.6c0-.3 0-.6.3-.8.2-.2.5-.4.9-.4h5.5c.3 0 .6.2.8.4.3.2.4.5.4.8v2a9 9 0 0 1 7.1-3.2h2.1c.4 0 .6.2.9.4.2.2.3.5.3.8v5c0 .3 0 .6-.3.8-.3.3-.5.4-.9.4h-4.6c-1.3 0-2.3.4-3 1-.8.8-1.1 1.8-1.1 3.1v12.3c0 .4-.2.6-.4.9-.2.2-.5.3-.9.3h-6Zm31 0c-.4 0-.6-.1-.9-.3-.2-.3-.3-.5-.3-.9v-22.6c0-.3.1-.6.3-.8.3-.2.5-.4.9-.4h5.5c.4 0 .7.2.9.4.2.2.3.5.3.8v2a9 9 0 0 1 7.2-3.2h2c.4 0 .7.2.9.4.3.2.4.5.4.8v5c0 .3-.1.6-.4.8-.2.3-.5.4-.8.4h-4.7c-1.3 0-2.3.4-3 1-.8.8-1.1 1.8-1.1 3.1v12.3c0 .4-.1.6-.4.9-.2.2-.5.3-.9.3h-5.9Zm32 .5c-3.9 0-6.9-1-9.1-3-2.2-2.1-3.4-5.2-3.5-9.2V180.6a14 14 0 0 1 1.7-6.5c1-1.8 2.5-3.2 4.3-4.1 1.9-1 4-1.4 6.5-1.4 2.8 0 5.1.5 7 1.6 1.8 1.2 3.2 2.7 4.1 4.6 1 2 1.4 4.1 1.4 6.6v1.1c0 .4-.1.7-.4.9-.2.2-.5.3-.8.3H672v.4c0 .9.2 1.7.5 2.5a3.6 3.6 0 0 0 3.6 2.5c.6 0 1.1 0 1.6-.3a5 5 0 0 0 1.7-1.4l.7-.6.9-.1h6c.2 0 .5 0 .7.2.2.2.3.4.3.8 0 .5-.3 1.2-.8 2a12.1 12.1 0 0 1-5.9 4.1c-1.5.4-3.2.7-5.2.7ZM672 179h8.2v-.1c0-1-.2-2-.5-2.7-.3-.8-.8-1.4-1.4-1.8-.6-.4-1.4-.6-2.2-.6-.9 0-1.6.2-2.2.6-.6.4-1 1-1.4 1.8a7 7 0 0 0-.5 2.7Zm22.3 15-.9-.3c-.2-.3-.3-.5-.3-.9v-31.7c0-.3.1-.6.3-.8.3-.3.6-.4.9-.4h5.7c.3 0 .6.1.8.4.3.2.4.5.4.8v31.7c0 .4-.1.6-.4.9-.2.2-.5.3-.8.3h-5.7Zm20 .5a11 11 0 0 1-4.6-1 8.6 8.6 0 0 1-3.2-2.7 6.4 6.4 0 0 1-1.2-3.8c0-2.2.9-4 2.7-5.3a17 17 0 0 1 7.4-2.8l6-.9v-.7c0-1.1-.2-2-.7-2.6-.5-.6-1.3-1-2.6-1-1 0-1.7.3-2.2.6-.6.4-1 .9-1.3 1.5-.3.4-.7.6-1.2.6H708c-.4 0-.6-.1-.8-.3a1 1 0 0 1-.3-.8c0-.5.2-1.2.7-2 .4-.7 1-1.5 2-2.2.9-.7 2-1.3 3.4-1.8s3.1-.7 5.1-.7c2.1 0 3.9.2 5.3.7a9 9 0 0 1 3.6 2 8 8 0 0 1 2 3c.5 1.2.7 2.5.7 4v14.5c0 .4 0 .6-.3.9-.3.2-.5.3-.9.3H723c-.4 0-.7-.1-.9-.3-.2-.3-.3-.5-.3-.9v-1.7a7 7 0 0 1-1.7 1.7c-.7.5-1.5 1-2.5 1.2-1 .3-2 .5-3.3.5Zm2.3-5.5c1 0 1.7-.2 2.5-.6.7-.4 1.3-1 1.8-1.8.4-.9.6-2 .6-3.3v-.6l-4 .7c-1.6.2-2.7.6-3.4 1.2-.6.5-1 1.1-1 1.8 0 .6.2 1 .5 1.4.3.4.7.7 1.3 1l1.7.2Zm31.1 5c-2 0-3.8-.3-5.3-1a7.4 7.4 0 0 1-3.4-3c-.8-1.4-1.2-3.2-1.2-5.5v-9.2h-3.7c-.4 0-.7 0-1-.3-.2-.2-.3-.5-.3-.9v-3.9c0-.3.1-.6.3-.8.3-.2.6-.4 1-.4h3.7v-7.9c0-.3.1-.6.3-.8.3-.3.6-.4.9-.4h5.6c.3 0 .6.1.8.4.3.2.4.5.4.8v8h6c.3 0 .6 0 .8.3.3.2.4.5.4.8v4c0 .3-.1.6-.4.8-.2.2-.5.3-.8.3h-6v8.6c0 1 .2 2 .6 2.6.4.6 1.1 1 2.1 1h3.7c.3 0 .6 0 .9.3.2.2.3.5.3.8v4.2c0 .4-.1.6-.3.9l-.9.3h-4.5Zm10.9 0c-.4 0-.7-.1-.9-.3-.2-.3-.3-.5-.3-.9v-22.6c0-.3 0-.6.3-.8.2-.2.5-.4.9-.4h5.6c.4 0 .6.2.9.4.2.2.3.5.3.8v22.6c0 .4 0 .6-.3.9-.3.2-.5.3-.9.3h-5.6Zm0-28.6c-.4 0-.7 0-1-.3-.2-.2-.3-.5-.3-.9V160c0-.4.1-.7.4-.9.2-.3.5-.4.8-.4h5.7c.4 0 .7.1.9.4.3.2.4.5.4.9v4.2c0 .4-.1.7-.4.9-.2.2-.5.3-.9.3h-5.7Zm24.3 29c-2.7 0-5-.4-6.8-1.2a9.7 9.7 0 0 1-4.3-3.7c-1-1.6-1.5-3.6-1.6-5.8a43.6 43.6 0 0 1 0-4.3c.1-2.3.7-4.2 1.7-5.8a10 10 0 0 1 4.3-3.7c1.9-1 4-1.3 6.7-1.3 2.6 0 4.8.4 6.6 1.3a10 10 0 0 1 4.4 3.7c1 1.6 1.6 3.5 1.7 5.8a41.8 41.8 0 0 1 0 4.3c-.1 2.2-.7 4.2-1.7 5.8a9.4 9.4 0 0 1-4.2 3.7c-1.8.8-4.1 1.3-6.8 1.3Zm0-5.8c1.4 0 2.4-.4 3-1.3a7 7 0 0 0 1.2-3.9 30.3 30.3 0 0 0 0-3.8c0-1.7-.4-3-1.1-3.8-.7-1-1.7-1.4-3.1-1.4-1.4 0-2.5.5-3.2 1.4-.6.8-1 2.1-1 3.8a30.3 30.3 0 0 0 0 3.8c0 1.8.4 3 1 4 .7.8 1.8 1.2 3.2 1.2Zm18.7 5.4c-.4 0-.7-.1-1-.3l-.2-.9v-22.6c0-.3 0-.6.3-.8.2-.2.5-.4.9-.4h5.5c.3 0 .6.2.8.4.3.2.4.5.4.8v1.9a10 10 0 0 1 8-3.5c1.8 0 3.5.4 4.9 1.2 1.4.8 2.5 2 3.3 3.7.9 1.6 1.3 3.6 1.3 6v13.3c0 .4-.1.6-.4.9-.2.2-.5.3-.8.3h-6c-.4 0-.7-.1-1-.3-.1-.3-.3-.5-.3-.9v-13.1c0-1.5-.3-2.7-1-3.5-.8-.8-1.8-1.2-3.2-1.2-1.3 0-2.4.4-3.2 1.2-.8.8-1.1 2-1.1 3.5v13.1c0 .4-.2.6-.4.9-.3.2-.5.3-.8.3h-6Zm39.8.5c-2 0-3.8-.2-5.3-.7-1.4-.5-2.6-1-3.6-1.7a8.1 8.1 0 0 1-2-2c-.4-.8-.7-1.4-.7-2 0-.3 0-.6.3-.8.3-.3.6-.4.9-.4h5.7l.3.2 1.2.9 1.4.9c.6.2 1.2.3 2 .3 1 0 1.7-.1 2.3-.5.6-.3.9-.9.9-1.6 0-.5-.2-.9-.4-1.2-.3-.4-1-.7-1.8-1-.9-.3-2.2-.7-4-1-1.6-.4-3-.9-4.3-1.5a7.5 7.5 0 0 1-3-2.4 6.6 6.6 0 0 1 .3-7.4c.9-1.2 2-2.2 3.7-2.9 1.6-.8 3.5-1.1 5.9-1.1a15.2 15.2 0 0 1 8.2 2.3c1 .6 1.7 1.3 2.2 2 .5.7.7 1.4.8 2 0 .3-.1.6-.3.8a1 1 0 0 1-.8.3H846l-.3-.2a6 6 0 0 1-1.2-.8 7 7 0 0 0-1.3-.8c-.5-.3-1.1-.4-2-.4-.8 0-1.5.2-2 .6-.4.4-.7.8-.7 1.5 0 .4.2.8.4 1.1.3.4.9.7 1.7 1l4 1c2.2.3 4 .9 5.3 1.7a7 7 0 0 1 2.8 2.7 6.9 6.9 0 0 1-.6 7.3 8.7 8.7 0 0 1-4 2.8c-1.8.7-4 1-6.6 1Zm17.5-.5c-.4 0-.7-.1-.9-.3-.2-.3-.3-.5-.3-.9v-31.7c0-.3.1-.6.3-.8.2-.3.5-.4.9-.4h6.1c.4 0 .7.1.9.4.2.2.3.5.3.8v10.7a10.2 10.2 0 0 1 7.6-3.3c1.9 0 3.5.5 5 1.3 1.4.8 2.6 2 3.4 3.7.8 1.6 1.3 3.6 1.3 6v13.3c0 .4-.2.6-.4.9-.2.2-.5.3-.8.3H876c-.4 0-.6-.1-.9-.3-.2-.3-.3-.5-.3-.9v-13.1c0-1.5-.4-2.7-1.1-3.5-.7-.8-1.8-1.2-3.2-1.2-1.3 0-2.4.4-3.2 1.2-.8.8-1.2 2-1.2 3.5v13.1c0 .4 0 .6-.3.9-.2.2-.5.3-.9.3H859Zm31.2 0c-.4 0-.6-.1-.9-.3-.2-.3-.3-.5-.3-.9v-22.6c0-.3.1-.6.3-.8.3-.2.5-.4.9-.4h5.7c.3 0 .6.2.8.4.2.2.4.5.4.8v22.6c0 .4-.2.6-.4.9-.2.2-.5.3-.8.3H890Zm0-28.6c-.4 0-.7 0-1-.3l-.2-.9V160c0-.4 0-.7.3-.9.2-.3.5-.4.9-.4h5.7c.3 0 .6.1.8.4.3.2.4.5.4.9v4.2c0 .4-.1.7-.4.9-.2.2-.5.3-.8.3H890Zm13.7 37.7c-.4 0-.6 0-.9-.3-.2-.2-.3-.5-.3-.9v-31.7c0-.3.1-.6.3-.8.3-.2.5-.4.9-.4h5.4c.3 0 .6.2.8.4.3.2.4.5.4.8v1.8c.8-1 1.7-1.8 3-2.4 1.2-.7 2.7-1 4.5-1 1.6 0 3 .2 4.2.7 1.2.5 2.2 1.2 3.1 2.2.9 1 1.5 2.1 2 3.5s.8 3 .9 4.7a35.7 35.7 0 0 1 0 3.6c0 1.7-.4 3.3-.8 4.7-.5 1.3-1.2 2.5-2 3.5a9 9 0 0 1-3.2 2.2c-1.2.5-2.6.8-4.2.8s-3-.3-4.2-.8a8 8 0 0 1-2.9-2.4v10.6c0 .4 0 .7-.3.9-.2.2-.5.3-.9.3h-5.8Zm11.5-15c1 0 1.9-.3 2.5-.7.6-.5 1-1 1.3-1.8a9 9 0 0 0 .5-2.6v-3a9 9 0 0 0-.5-2.5c-.3-.8-.7-1.4-1.3-1.8-.6-.5-1.4-.7-2.5-.7-1 0-2 .2-2.6.7-.6.5-1 1-1.4 1.8-.3.7-.4 1.5-.5 2.4a33.8 33.8 0 0 0 0 3.6c0 .8.3 1.5.6 2.2.3.7.8 1.3 1.4 1.7.7.4 1.5.6 2.5.6ZM949 194c-.5 0-.9-.1-1-.3-.3-.3-.5-.5-.6-.9l-7-22.2v-.5c0-.3 0-.5.3-.7.2-.2.5-.4.8-.4h5c.3 0 .7.2.9.4l.5.6 4 13.8 4.3-13.7c0-.2.2-.5.5-.7.2-.2.6-.4 1-.4h3.2c.4 0 .8.2 1 .4l.5.7 4.3 13.7 4-13.8c0-.2.2-.4.4-.6.3-.2.6-.4 1-.4h5c.3 0 .5.2.7.4.2.2.4.4.4.7v.5l-7 22.2c-.1.4-.3.6-.5.9-.3.2-.6.3-1 .3h-4.4c-.5 0-.8-.1-1-.3-.3-.3-.5-.5-.6-.9l-4.4-13.2-4.4 13.2c-.1.4-.3.6-.6.9-.2.2-.6.3-1 .3H949Zm34.4 0c-.3 0-.6-.1-.8-.3-.3-.3-.4-.5-.4-.9v-22.6c0-.3.1-.6.4-.8.2-.2.5-.4.8-.4h5.7c.3 0 .6.2.8.4.3.2.4.5.4.8v22.6c0 .4-.1.6-.4.9-.2.2-.5.3-.8.3h-5.7Zm0-28.6c-.4 0-.7 0-.9-.3-.2-.2-.3-.5-.3-.9V160c0-.4 0-.7.3-.9.2-.3.5-.4.9-.4h5.7c.3 0 .6.1.9.4.2.2.3.5.3.9v4.2c0 .4 0 .7-.3.9-.3.2-.6.3-1 .3h-5.6Zm25.3 28.6c-2 0-3.8-.3-5.3-1a7.4 7.4 0 0 1-3.4-3c-.9-1.4-1.3-3.2-1.3-5.5v-9.2H995c-.3 0-.6 0-1-.3l-.2-.9v-3.9c0-.3 0-.6.3-.8.3-.2.6-.4 1-.4h3.6v-7.9c0-.3.2-.6.4-.8.2-.3.5-.4.9-.4h5.5a1.2 1.2 0 0 1 1.2 1.2v8h6a1.2 1.2 0 0 1 1.2 1.1v4a1.1 1.1 0 0 1-1.2 1.1h-6v8.6c0 1 .2 2 .6 2.6.5.6 1.2 1 2.2 1h3.6a1.2 1.2 0 0 1 1.3 1.1v4.2a1.1 1.1 0 0 1-1.3 1.2h-4.4Zm10.8 0a1.2 1.2 0 0 1-1.2-1.2v-31.7c0-.3.1-.6.4-.8.2-.3.5-.4.8-.4h6.2a1.2 1.2 0 0 1 1.2 1.2v10.7c.8-1 1.9-1.8 3.1-2.3 1.3-.6 2.8-1 4.5-1 1.8 0 3.5.5 4.9 1.3 1.5.8 2.6 2 3.4 3.7.9 1.6 1.3 3.6 1.3 6v13.3a1.1 1.1 0 0 1-1.2 1.2h-6.2l-.9-.3c-.2-.3-.3-.5-.3-.9v-13.1c0-1.5-.4-2.7-1.1-3.5-.7-.8-1.8-1.2-3.2-1.2-1.3 0-2.3.4-3.1 1.2-.8.8-1.2 2-1.2 3.5v13.1a1.1 1.1 0 0 1-1.2 1.2h-6.2Zm43.5 0-.9-.3c-.2-.3-.3-.5-.3-.9v-17.5h-3.6c-.4 0-.7 0-1-.3-.1-.2-.3-.5-.3-.9v-3.9c0-.3.2-.6.4-.8.2-.2.5-.4.9-.4h3.6v-1.5c0-2.2.4-4 1.2-5.2 1-1.4 2.1-2.3 3.7-3 1.6-.5 3.4-.8 5.6-.8h3.8c.3 0 .5 0 .8.3.2.2.3.5.3.9v3.9c0 .3 0 .6-.3.8-.3.3-.5.4-.9.4h-3.3c-1.1 0-1.9.2-2.3.7-.4.5-.6 1.3-.6 2.2v1.3h5.8c.3 0 .6.2.8.4.2.2.4.5.4.8v4c0 .3-.2.6-.4.8-.2.2-.5.3-.8.3h-5.8v17.5c0 .4-.1.6-.4.9-.2.2-.5.3-.8.3h-5.6Zm26.4.5c-1.9 0-3.5-.4-5-1.3-1.3-.8-2.4-2-3.2-3.6-.8-1.6-1.2-3.6-1.2-6v-13.4a1.1 1.1 0 0 1 1.2-1.2h6a1.2 1.2 0 0 1 1.2 1.2v13.1c0 3.2 1.4 4.7 4.2 4.7 1.3 0 2.3-.4 3.1-1.2.8-.8 1.2-2 1.2-3.5v-13c0-.4.1-.7.3-1 .3-.1.5-.3.9-.3h6c.4 0 .6.2.9.4.2.2.3.5.3.8v22.6c0 .4-.1.6-.3.9-.3.2-.5.3-.9.3h-5.6c-.3 0-.6-.1-.8-.3-.3-.3-.4-.5-.4-.9V191a8 8 0 0 1-3.2 2.6c-1.3.6-3 .9-4.7.9Zm22.8-.5a1.2 1.2 0 0 1-1.3-1.2v-22.6a1.1 1.1 0 0 1 1.3-1.2h5.5a1.2 1.2 0 0 1 1.2 1.2v1.9a10 10 0 0 1 8-3.5c1.8 0 3.5.4 4.9 1.2 1.4.8 2.5 2 3.3 3.7.9 1.6 1.3 3.6 1.3 6v13.3c0 .4-.1.6-.4.9-.2.2-.5.3-.8.3h-6c-.4 0-.7-.1-1-.3-.2-.3-.3-.5-.3-.9v-13.1c0-1.5-.3-2.7-1-3.5-.8-.8-1.8-1.2-3.2-1.2-1.3 0-2.4.4-3.2 1.2-.8.8-1.2 2-1.2 3.5v13.1c0 .4 0 .6-.3.9-.3.2-.5.3-.8.3h-6Zm38.9.5c-1.6 0-3-.3-4.2-.7a9.2 9.2 0 0 1-3.2-2.2c-.9-1-1.5-2.2-2-3.6a17 17 0 0 1-.8-4.8 37.1 37.1 0 0 1 0-3.4c0-1.7.3-3.2.8-4.6.5-1.4 1.1-2.6 2-3.6.9-1 2-1.7 3.2-2.2 1.2-.6 2.6-.8 4.2-.8a9.6 9.6 0 0 1 7 2.8V161c0-.3.1-.6.4-.8.2-.3.5-.4.8-.4h5.9c.3 0 .6.1.8.4.2.2.4.5.4.8v31.7c0 .4-.2.6-.4.9-.2.2-.5.3-.8.3h-5.5c-.3 0-.6-.1-.8-.3-.2-.3-.4-.5-.4-.9v-1.5a9 9 0 0 1-7.4 3.2Zm2.6-6.5c1 0 1.9-.2 2.5-.6.6-.5 1.1-1.1 1.4-1.8.3-.8.5-1.6.5-2.4a29 29 0 0 0 0-3.6c0-.8-.2-1.6-.5-2.3-.3-.7-.8-1.2-1.4-1.6-.7-.5-1.5-.7-2.5-.7-1.1 0-2 .2-2.6.7-.6.4-1 1-1.3 1.8a14.8 14.8 0 0 0 0 8c.3.8.7 1.4 1.3 1.9.7.4 1.5.6 2.6.6Zm19.5 6c-.3 0-.6-.1-.8-.3-.3-.3-.4-.5-.4-.9v-22.6c0-.3.1-.6.4-.8.2-.2.5-.4.8-.4h5.7c.3 0 .6.2.8.4.3.2.4.5.4.8v22.6c0 .4-.1.6-.4.9-.2.2-.5.3-.8.3h-5.7Zm0-28.6a1.2 1.2 0 0 1-1.2-1.2V160c0-.4 0-.7.3-.9.2-.3.5-.4.9-.4h5.7c.3 0 .6.1.9.4.2.2.3.5.3.9v4.2c0 .4 0 .7-.3.9-.3.2-.6.3-1 .3h-5.6Zm13.7 28.6a1.2 1.2 0 0 1-1.2-1.2v-22.6c0-.3.1-.6.3-.8.3-.2.6-.4 1-.4h5.4c.4 0 .7.2.9.4.2.2.3.5.3.8v1.9a10.1 10.1 0 0 1 8-3.5c2 0 3.5.4 5 1.2 1.4.8 2.5 2 3.3 3.7.8 1.6 1.3 3.6 1.3 6v13.3c0 .4-.2.6-.4.9-.3.2-.5.3-.8.3h-6c-.4 0-.7-.1-1-.3-.2-.3-.3-.5-.3-.9v-13.1c0-1.5-.4-2.7-1.1-3.5-.7-.8-1.8-1.2-3.2-1.2-1.3 0-2.3.4-3.1 1.2-.8.8-1.2 2-1.2 3.5v13.1c0 .4-.1.6-.4.9-.2.2-.5.3-.8.3h-6Zm41.8 10.6a17 17 0 0 1-6-1c-1.7-.6-3-1.4-4-2.3-.9-.9-1.5-1.8-2-2.7-.4-.9-.6-1.5-.6-2 0-.4 0-.7.3-1 .3-.1.6-.3 1-.3h6l.7.2c.3.2.4.5.6.8.1.4.3.7.6 1.1.3.4.7.7 1.2 1 .5.2 1.2.3 2 .3 1 0 1.8-.2 2.4-.5.6-.3 1.1-.8 1.4-1.5.4-.6.5-1.5.5-2.7v-3.2c-.7.8-1.6 1.4-2.8 2-1.2.4-2.5.7-4.2.7-1.6 0-3-.3-4.3-.7a7.8 7.8 0 0 1-3.1-2.2c-.9-1-1.5-2.1-2-3.5a18.7 18.7 0 0 1-.8-7.3c.1-1.7.4-3.2.8-4.6.5-1.4 1.1-2.6 2-3.6.8-1 1.9-1.7 3.1-2.2 1.3-.6 2.7-.8 4.3-.8a9.3 9.3 0 0 1 7.5 3.5v-1.9c0-.3.1-.6.4-.8.2-.2.5-.4.8-.4h5.5c.4 0 .7.2.9.4.3.2.4.5.4.8v23.1c0 2.5-.5 4.5-1.5 6.2-1 1.6-2.4 2.9-4.3 3.8a16 16 0 0 1-6.8 1.3Zm-.3-17.4c1 0 1.9-.2 2.5-.6.6-.5 1.1-1 1.4-1.8a6 6 0 0 0 .5-2.2 18.3 18.3 0 0 0 0-3 6 6 0 0 0-.5-2.3c-.3-.7-.8-1.2-1.4-1.6-.6-.5-1.5-.7-2.5-.7s-1.9.2-2.5.7c-.6.4-1 1-1.4 1.8a10 10 0 0 0-.5 2.5v2.2l.5 2.5c.3.8.8 1.4 1.4 1.9.6.4 1.5.6 2.5.6Z"/><g fill="#FCDD9A"><path d="M545.3 97.8c1.4 2.8-.4 4.2-2.1 5.7a31.5 31.5 0 0 1-14 5.3 57 57 0 0 1-17.4-1c-4.3-1.1-5-2.2-4.6-6.8 1.8-2.9 5-2.2 7.5-2.9 4.2-1.4 8.9-1.8 13.1-3.2a16 16 0 0 1 12.9.7c1.7.7 3.2 1.4 4.6 2.2ZM602.3 158c-.4-1.5-.4-3-.7-4.3 1-.7 2.1-1.8 3.5-2.2 9-2.8 17.1-7 25.3-11.4 5.3-2.8 10-1.7 14.6.7 1 3.6-1.4 5.4-3.6 6.5-8.5 4.6-17.4 8.1-27 10.3-4 .7-7.9 1.4-12.1.3ZM494.4 118c5.7-.3 11.7-1 17.8-1.4 5.3-.3 9.2 1.1 14.2 4.7.7 2.1-.3 3.5-2.1 4.6-5.4 3.2-11 5-17.5 3.2-3.2-.7-6.7-1-10.3-1.8-5-1.4-5.7-4.6-2.1-9.2ZM380.8 53.6c5.7-.7 10.3 1.4 13.9 4.3 3.5 2.5 6.7 5.3 10.6 6.7.8.4 1.5 1.1 2.5 1.5-.7 3.5-3.9 6-8.2 6-2.8 0-5.3-.7-8.1-1.4-2.2-.4-4.3-1.4-6.5-2.1a9.5 9.5 0 0 1-5.7-12.5c.8-.4 1.1-1.4 1.5-2.5ZM347.7 53.6c-3.6 5-6.5 5.7-10.7 3.6-4.7-2.5-9.3-5-14-7.9-4.2-2.5-5.3-8.9-2.4-14.2 5 0 9.6 1.8 13.5 5.7 3.2 3.5 6.8 6.7 10 10 1.4 1 2.5 1.7 3.6 2.8ZM716.6 38.3c4.6-1.8 9.6-4 14.6-5.7 3.2-1 5.7 0 7.8 3.2a29.1 29.1 0 0 1-18.5 17.4c-4 1.1-4.6.8-6-3.2-1.5-3.5-.8-7.4 2-11.7ZM536.4 61.8c-1 4-4.6 5.3-7.5 6-4 1.5-8.2 2.2-12.1 2.5-6 .8-9.3 0-11-7 1.7-5.8 5-7.6 10.6-6.5 4 .7 7.9 1 11.8 1.4 2.8.4 5.7 1.8 8.2 3.6ZM555.3 125.2c-2.2-4-2.2-4-1.1-6.8 4.6-2.5 8.9-4.6 13.2-6.8a15.8 15.8 0 0 1 17.8 2.9c-2.2 5-7.1 7.1-11.8 8.2-5.7 1.4-12 1.8-18.1 2.5ZM604.8 134.8c-.7-.7-1.5-1.4-2.2-2.5V128l11.8-9.2c5.7-.7 10.7.3 14.6 4.6-2.9 6.4-13.2 11.4-24.2 11.4ZM467.7 78.2c2.8-3.2 6.7-3.2 10.3-2.5 5.3 1 10.7 2.5 16 3.9 1.4.4 2.5 1.4 4 2.5-1.1 1-1.8 1.8-2.6 2.1-6.4 4-13.5 4-20.3 3.2-5-.7-7.4-4.2-7.4-9.2ZM739 55.4a97.3 97.3 0 0 0-6 8.5c-3.6 5.4-9 9.3-14 13.6a32 32 0 0 1-12 7c-3.2-.6-3.2-3.1-3.2-6 0-3.2 1-5.3 3.9-6.7 2.1-1.1 4.3-1.5 6.7-2.2a71.4 71.4 0 0 0 17.5-8.2c2.5-1.7 4.3-3.9 7.1-6ZM646 66.8c-1 1-2 2.5-3.1 2.8l-19 8.6c-2.8 1.4-5.3 1-7.7-1.5v-4.2c.3-3.6 2.8-5.7 6.4-6l16-2.2c2.5 0 5.3-.4 7.5 2.5ZM682 24l-.3-3.2c3.2-3.5 6.4-7 9.2-10.3 1.5-1.8 2.9-3.2 4.3-5 3.6-4.2 8.2-4.6 12.8-1v3.2c-6.7 7.8-20.6 16.7-26 16.3ZM472.6 150.5c9-3.2 17.9-1.5 26.8-1.8 1.4 0 2.8 1 3.9 1.4 0 2.9-1.5 4-2.9 4.6-4.3 1.8-8.5 3.6-12.8 5-4.6 1.4-12.8-2.8-15-7.1v-2.1ZM636.5 31.9c-2.5-5.4-2.5-6.4 1.7-9.6 2.2-1.8 4.3-3.6 6.8-5 5-2.9 10-2.9 14.6-.7 1.4 3.2-.4 4.6-1.8 5.7a49.7 49.7 0 0 1-19.6 9.2c-.7.7-1 .4-1.7.4ZM394.7 96.3c5.3-.3 10 1.5 13.8 5.4 2.5 2.1 5 3.9 8.2 4.6l3.6 1c-2.5 4.3-6 4.7-9.6 4.3-4.3-.3-8.6-1.4-12.5-2.4-5.3-1.5-7.5-8.6-3.5-12.9ZM681.3 70c-1.8 3.5-3.9 5.7-6 7.1-4.7 2.9-9.6 5.7-14.6 8.2-2.2 1-5 .7-7.5 1-.7-1.4-1.4-2.4-2.1-3.5 1.7-4.6 4.2-7.8 9.2-8.5 5.7-1.1 11-2.9 16.4-4 1.8-.7 2.8-.3 4.6-.3ZM461.6 96.7c-1 3.6-4 4.6-6.4 5-5.3.7-10.7 1-16-.4-4.7-1.4-6.4-4.3-6-9.6 2.4-2.5 5.3-2.1 8.5-1.4 1.4.3 2.5 1 3.9 1.4L458 96c1.1 0 2.2.3 3.6.7ZM431 39.4c9.6-1.5 15.7 4.6 23.1 7.8-2.5 4.3-6 5-10 5.7-1.7.3-3.1 0-5 0-5.6-.4-9.2-4-9.5-9.6 0-1 1-2.5 1.4-4ZM573 64.3a26 26 0 0 0 3.6-3.2c6.4-1.8 13.2-1 20-1 2.1 0 3.9.6 4.6 3.1-1.4.7-2.5 1.8-4 2.2-4.9 1.7-10.2 3.5-15.2 5-1.5.3-2.9.3-4.3 0-3.2.3-4.6-1.5-4.6-6.1ZM439.5 114.5c4.3-1 8.2 0 11.8 1.8l11.4 5c.7.3 1 .7 1.8 1-.4 3.2-3.2 4-5.4 4-5 0-10-.4-15-1.1-3.5-.4-5.6-5.7-4.6-10.7ZM566.7 155c0-1.7-.4-2.4-.4-3.5 3.6-1.4 7.1-3.2 10.7-4.6 2.1-1 4.6-2.5 7.1-4 4-2 7.8-1 11 1.2.4 2.8-1.4 3.9-3.2 5.3-4.6 2.8-10 4-15.3 5-3.2.3-6.4.3-10 .7ZM515.7 33c9.7-2.9 19-4 29.2-1.1-6 4.3-11.4 7.5-18.1 7.5-1.8 0-4 0-5.7-.4-4-.4-5.4-2.1-5.4-6ZM439.2 135.9c-1.5 1-2.5 2.1-4 3.2L419 138c-3.2-.4-4.3-3.2-5.7-5.7-.7-1.4-.7-1.4 1.4-4 4.3-.6 8.2 0 12.1 2.2 2.9 1.4 6 2.5 9 3.6.6.7 1.7 1 3.5 1.8ZM693 98.1c-3.8 6.4-9.9 11.8-17.4 13.9-2.5-.7-3.2-2.8-3.9-5 1-4.6 3.2-7.5 8.6-7.5 2.8-.3 5.7-1.4 8.1-2.5 2.2-1 3.3-.7 4.7 1.1ZM593.4 98.5c1-.7 1.7-1.5 2.8-1.8l10.7-5.4c3.6-1.7 6.8-1 10 .4 1.4 2.5.3 4.3-1.5 5.3a26 26 0 0 1-17 4.7c-2.2 0-4.3-.7-5-3.2ZM579.8 38v-4c9.3-5.3 16-6.4 19-3.5-3.3 6.7-13.6 11-19 7.4ZM536.7 138.7c-1.4 4-4.2 5-7.8 5.4-3.2.3-6.8.3-8.2-4 2.9-5 10-5.7 16-1.4Z"/></g><path fill="#6A74A5" d="m1081.6 57-.3-.1V45.9l.3-.1h3.6a6 6 0 0 1 2.7.5 3 3 0 0 1 1.4 1.5c.4.6.5 1.4.5 2.3v2.5a6 6 0 0 1-.5 2.5 3 3 0 0 1-1.4 1.4 6 6 0 0 1-2.6.5h-3.7Zm1.2-1.4h2.4c.8 0 1.3 0 1.8-.3.4-.2.7-.5 1-1l.2-1.7V50.2c0-1-.2-1.8-.7-2.3-.5-.5-1.3-.7-2.4-.7h-2.3v8.4Zm12.7 1.6a4 4 0 0 1-2-.5c-.6-.3-1-.7-1.3-1.3-.3-.5-.5-1.2-.5-1.9V52.2c0-.8.2-1.4.5-2 .3-.5.7-1 1.2-1.2a4 4 0 0 1 2-.5 4 4 0 0 1 2 .5c.6.3 1 .7 1.3 1.3.3.5.5 1.1.5 1.9a11.6 11.6 0 0 1 0 1.3c0 .7-.2 1.4-.5 2-.3.5-.7.9-1.2 1.2a4 4 0 0 1-2 .5Zm0-1.3c.6 0 1.1-.2 1.5-.6.4-.4.6-1 .7-1.9v-1.2c0-.8-.3-1.4-.7-1.8a2 2 0 0 0-1.5-.6c-.7 0-1.2.2-1.7.6-.3.4-.5 1-.6 1.8a9.5 9.5 0 0 0 0 1.2c0 .9.3 1.5.6 1.9.5.4 1 .6 1.7.6Zm6.1 1.1-.3-.1v-8.1l.3-.1h1l.1.3v.8l1-1c.5-.2 1-.3 1.7-.3s1.3.2 1.8.5c.4.3.8.7 1 1.2.3.6.4 1.2.4 2v4.7l-.3.1h-.8l-.3-.1-.1-.3v-4.4c0-.7-.2-1.3-.5-1.7-.4-.5-1-.7-1.6-.7-.7 0-1.2.2-1.6.7-.4.4-.6 1-.6 1.7v4.4l-.1.3-.3.1h-.8Zm8.8-8.3h-.2v-.3l.3-2.3.1-.3.4-.2h1l.2.1v.5l-.8 2.2-.2.2-.3.1h-.5Zm7 8.3c-.7 0-1.2-.1-1.6-.3a2 2 0 0 1-.8-1l-.2-1.5V50h-1.3l-.2-.1-.1-.3v-.8l.3-.1h1.3V45.8l.4-.2h.7c.1 0 .2 0 .3.2V48.7h2.3l.1.3V50h-2.3v4.2c0 .5 0 .9.2 1.2.2.2.5.4 1 .4h1l.2.1v1.1l-.3.1h-1Zm7.2 0-.3-.1V45.8l.3-.2h.8c.1 0 .2 0 .3.2V49.7l1.1-.8c.5-.3 1-.4 1.6-.4.7 0 1.3.2 1.8.5s.8.7 1 1.2c.3.6.5 1.2.5 2v4.4l-.1.3-.3.1h-.8l-.3-.1v-4.7c0-.7-.3-1.3-.6-1.7-.4-.5-1-.7-1.6-.7-.7 0-1.2.2-1.6.7-.4.4-.6 1-.6 1.7v4.4l-.1.3-.3.1h-.8Zm11.7.2c-.5 0-1-.1-1.5-.4l-1-.8a2 2 0 0 1-.4-1.3c0-.7.3-1.3.9-1.7.6-.5 1.4-.7 2.3-.9l2.4-.3v-.5c0-.5-.1-.9-.4-1.2-.3-.3-.8-.4-1.5-.4-.4 0-.8 0-1.1.3-.3.2-.5.4-.6.7-.1.2-.2.3-.4.3h-.7l-.3-.1v-.3l.1-.6.6-.7 1-.5a4 4 0 0 1 1.5-.3c.6 0 1.1.1 1.6.3.4.1.7.4 1 .6l.5 1c.2.3.2.7.2 1v5.2l-.1.3-.3.1h-.7l-.3-.1v-1l-.6.6c-.3.2-.5.4-.9.5l-1.3.2Zm.3-1.2c.5 0 .9-.1 1.2-.3.4-.2.7-.5.9-.9.2-.4.3-.9.3-1.5V53l-1.8.2c-.8.2-1.4.3-1.8.6-.4.2-.5.5-.5 1 0 .2 0 .5.2.7l.7.4.8.2Zm9 1-.4-.1-.2-.3-3-7.4v-.4l.3-.1h1l.2.3 2.4 6.3 2.4-6.3.1-.2.3-.1h1l.1.3v.2l-3 7.4c0 .1 0 .2-.2.3l-.4.1h-.7Zm9 .2c-1.2 0-2-.4-2.7-1-.7-.7-1-1.7-1-2.8v-1.1c0-.8.1-1.4.5-2a3.3 3.3 0 0 1 3.1-1.8c.8 0 1.5.2 2 .5.6.4 1 .9 1.3 1.5.3.6.5 1.4.5 2.2v.3s0 .2-.2.2l-.2.1h-5.6v.1c0 .5.2 1 .3 1.3l.8 1c.3.2.7.3 1.1.3a2.3 2.3 0 0 0 2-1l.2-.2h1.2l.1.3c0 .2 0 .4-.2.6l-.7.7a4 4 0 0 1-2.6.8Zm-2.3-5h4.4c0-.5 0-1-.2-1.3a2 2 0 0 0-2-1.2 2 2 0 0 0-1.2.3 2 2 0 0 0-.7.9 3 3 0 0 0-.3 1.3Zm14.1 5c-.5 0-1-.1-1.5-.4l-1-.8a2 2 0 0 1-.4-1.3c0-.7.3-1.3.9-1.7.6-.5 1.4-.7 2.3-.9l2.4-.3v-.5c0-.5-.1-.9-.4-1.2-.3-.3-.8-.4-1.5-.4-.4 0-.8 0-1.1.3-.3.2-.5.4-.6.7-.1.2-.2.3-.4.3h-.7l-.3-.1v-.3l.1-.6.6-.7 1-.5a4 4 0 0 1 1.5-.3c.6 0 1.1.1 1.6.3.4.1.8.4 1 .6.3.3.4.6.5 1 .2.3.2.7.2 1V57l-.3.1h-.8l-.3-.1v-1l-.6.6c-.3.2-.5.4-.9.5l-1.3.2Zm.3-1.2c.5 0 .9-.1 1.3-.3.3-.2.6-.5.8-.9.2-.4.3-.9.3-1.5V53l-1.8.2c-.8.2-1.4.3-1.8.6-.3.2-.5.5-.5 1 0 .2 0 .5.2.7l.7.4.8.2Zm6.6 1-.3-.1v-8.1l.3-.1h1l.1.3v.8a3 3 0 0 1 2.7-1.3c.7 0 1.3.2 1.7.5.5.3.9.7 1.1 1.2.3.6.4 1.2.4 2v4.7l-.3.1h-.8l-.3-.1-.1-.3v-4.4c0-.7-.2-1.3-.5-1.7-.4-.5-1-.7-1.6-.7-.7 0-1.3.2-1.7.7-.3.4-.5 1-.5 1.7v4.4c0 .1 0 .2-.2.3l-.2.1h-.8Zm15.6.2c-.6 0-1-.1-1.5-.4-.4-.2-.8-.5-1-.8a2 2 0 0 1-.5-1.3c0-.7.3-1.3 1-1.7a5 5 0 0 1 2.3-.9l2.4-.3v-.5c0-.5-.2-.9-.5-1.2-.3-.3-.7-.4-1.4-.4-.5 0-.9 0-1.2.3-.3.2-.5.4-.6.7 0 .2-.2.3-.3.3h-.7l-.3-.1V50l.7-.7c.2-.2.5-.4 1-.5a4 4 0 0 1 1.4-.3c.6 0 1.2.1 1.6.3a2.5 2.5 0 0 1 1.6 1.6l.2 1v5.2l-.1.3-.3.1h-.7l-.3-.1-.1-.3V56l-.6.6-.8.5-1.3.2Zm.3-1.2 1.2-.3c.4-.2.6-.5.8-.9.3-.4.4-.9.4-1.5V53l-1.9.2c-.8.2-1.3.3-1.7.6-.4.2-.6.5-.6 1 0 .2.1.5.3.7l.6.4.9.2Zm9.5 1.2c-.7 0-1.4-.2-2-.5-.5-.3-.9-.7-1.2-1.2-.3-.6-.5-1.3-.5-2a10.1 10.1 0 0 1 0-1.3c0-.8.2-1.4.5-2 .3-.5.7-1 1.3-1.2.5-.3 1.2-.5 2-.5l1.5.3c.5.1.8.4 1.1.6a2.7 2.7 0 0 1 .9 1.8l-.1.2-.3.1h-1l-.1-.3c-.2-.5-.5-.9-.8-1.1-.3-.2-.8-.3-1.3-.3-.6 0-1.1.2-1.5.6-.4.4-.6 1-.7 1.9v1.1c0 .9.3 1.5.7 2 .4.3 1 .5 1.5.5s1-.1 1.3-.3c.3-.2.6-.6.8-1.1l.1-.3h1.3l.1.3-.1.7-.5.7a3 3 0 0 1-.7.7l-1 .4-1.3.2Zm8.9 0c-.8 0-1.4-.2-2-.5-.5-.3-1-.7-1.3-1.2-.3-.6-.4-1.3-.5-2a10.1 10.1 0 0 1 0-1.3c0-.8.2-1.4.5-2 .3-.5.8-1 1.3-1.2.6-.3 1.2-.5 2-.5.6 0 1.1.1 1.5.3.5.1.9.4 1.2.6a2.7 2.7 0 0 1 .8 1.8v.2l-.3.1h-1.1l-.1-.3c-.2-.5-.5-.9-.8-1.1-.3-.2-.7-.3-1.2-.3-.7 0-1.2.2-1.6.6-.4.4-.6 1-.6 1.9v1.1c0 .9.2 1.5.6 2 .4.3 1 .5 1.6.5.5 0 .9-.1 1.2-.3.3-.2.6-.6.8-1.1l.2-.3h1.2l.1.3-.1.7-.4.7a3 3 0 0 1-.7.7l-1 .4-1.3.2Zm8.8 0c-.8 0-1.5-.2-2-.5a3 3 0 0 1-1.2-1.3c-.3-.5-.5-1.2-.5-1.9a12.2 12.2 0 0 1 0-1.3c0-.8.2-1.4.5-2 .3-.5.7-1 1.2-1.2a4 4 0 0 1 2-.5 4 4 0 0 1 2 .5c.6.3 1 .7 1.3 1.3.3.5.5 1.1.5 1.9V53.5c0 .7-.2 1.4-.5 2-.3.5-.7.9-1.2 1.2a4 4 0 0 1-2 .5Zm0-1.3a2 2 0 0 0 1.6-.6c.4-.4.6-1 .7-1.9a9.5 9.5 0 0 0 0-1.2c0-.8-.3-1.4-.7-1.8a2 2 0 0 0-1.6-.6 2 2 0 0 0-1.6.6c-.4.4-.6 1-.6 1.8v1.2c0 .9.2 1.5.6 1.9.4.4 1 .6 1.6.6Zm9 1.3a3 3 0 0 1-2.8-1.7c-.3-.6-.5-1.2-.5-2V49l.1-.2.3-.1h1.1v4.8c0 1.6.8 2.4 2.2 2.4.6 0 1.1-.2 1.5-.7.4-.4.6-1 .6-1.7V49l.1-.2.3-.1h1.1V57l-.3.1h-.7l-.3-.1-.1-.3V56l-1 1c-.5.1-1 .3-1.7.3Zm6.8-.2-.3-.1v-8.1l.3-.1h1l.1.3v.8l1-1c.5-.2 1-.3 1.7-.3s1.3.2 1.8.5.8.7 1 1.2c.3.6.4 1.2.4 2v4.7l-.3.1h-.8l-.3-.1v-4.7c0-.7-.3-1.3-.6-1.7-.4-.5-1-.7-1.6-.7-.7 0-1.2.2-1.6.7-.4.4-.6 1-.6 1.7v4.4l-.1.3-.3.1h-.8Zm12.5 0c-.6 0-1.1-.1-1.5-.3a2 2 0 0 1-.8-1 4 4 0 0 1-.3-1.5V50h-1.2l-.3-.1V48.8l.3-.1h1.3V45.8l.3-.2h.8s.2 0 .2.2l.1.2v2.7h2.3V50h-2.3v4.2c0 .5.1.9.3 1.2.2.2.5.4 1 .4h.9l.2.1c.1 0 .2.1.2.3v.5c0 .1 0 .2-.2.3l-.2.1h-1.1Zm5.7-2.6-.3-.1V53.4c0-.5 0-.9.3-1.2.1-.4.4-.7.6-1a28.5 28.5 0 0 1 1.5-1.6c.2-.3.3-.5.3-.8 0-.4 0-.7-.2-1-.2-.3-.4-.5-.8-.6a2.6 2.6 0 0 0-2.5.2c-.3.3-.6.8-.7 1.5l-.2.3h-1.3v-.3c0-.4 0-.8.2-1.2.2-.4.5-.8.8-1a4 4 0 0 1 2.8-1c.6 0 1.2 0 1.6.2a2.8 2.8 0 0 1 1.8 1.7l.1 1c0 .5-.1.8-.3 1.2l-.7 1a29.7 29.7 0 0 1-1.4 1.6c-.2.3-.3.6-.3 1v.6l-.2.3h-1.1Zm-.1 2.6-.3-.1-.1-.3v-1.2l.4-.1h1l.3.1v1.5l-.3.1h-1Z"/><rect width="135" height="38" x="1272" y="33" stroke="url(#k)" stroke-width="2" opacity=".7" rx="19"/><path fill="#4458FE" d="M1300.6 57.2c-1 0-1.8-.2-2.5-.6-.7-.3-1.2-.8-1.6-1.4-.4-.7-.6-1.4-.6-2.3a66.4 66.4 0 0 1 0-3c0-1 .2-1.7.6-2.3.4-.6 1-1.1 1.6-1.4a6 6 0 0 1 4.6-.2c.5.2 1 .4 1.4.8.4.3.7.6.9 1l.3 1v.3h-2.2l-.2-.2a2 2 0 0 0-.4-.6 2 2 0 0 0-.7-.6l-1.2-.2c-.7 0-1.3.2-1.7.6-.5.3-.7 1-.7 1.9v2.8c0 .9.2 1.5.7 2 .4.3 1 .5 1.7.5.5 0 1 0 1.3-.2l1-.8c.1-.4.3-.9.3-1.4v-.5h-2l-.3-.1v-1.5H1305.3l.1.3v1.7c0 .9-.2 1.7-.6 2.3-.4.7-1 1.2-1.6 1.5-.8.4-1.6.6-2.6.6Zm10.3 0c-1.2 0-2.2-.4-2.9-1-.7-.7-1-1.7-1-3l-.1-.4v-.4c0-.8.2-1.5.6-2 .3-.6.7-1 1.3-1.4a4 4 0 0 1 2-.5c1 0 1.6.2 2.2.6.6.3 1 .8 1.3 1.5.4.6.5 1.3.5 2.1v.4l-.1.3h-5.6v.1c0 .5 0 .8.2 1.1.1.3.3.6.6.8.3.2.6.3 1 .3.2 0 .5 0 .7-.2a2 2 0 0 0 .8-.6l.2-.2H1314.5v.3c0 .2 0 .4-.2.6a3 3 0 0 1-.7.7c-.3.3-.7.5-1.2.6a5 5 0 0 1-1.6.3Zm-1.8-5h3.5V52c0-.4 0-.8-.2-1.1-.1-.3-.3-.6-.6-.8l-1-.2c-.3 0-.6 0-1 .2l-.5.8-.2 1v.1Zm11.1 4.8c-.6 0-1.2-.1-1.6-.3-.4-.3-.8-.6-1-1-.2-.5-.3-1-.3-1.7v-3.6h-1.3l-.2-.1-.1-.3v-1.2l.3-.1h1.3V46l.1-.2.3-.2h1.3c.1 0 .2 0 .3.2V48.7h2.4v1.6h-2.3v3.5c0 .5 0 .8.2 1 .2.3.4.4.8.4h1.1c.1 0 .2 0 .3.2l.1.2v1l-.1.3-.3.1h-1.3Zm10 .2c-.7 0-1.3-.1-1.7-.3-.5-.1-.8-.3-1.1-.5l-.7-.7-.2-.6.1-.2.3-.1h1.5l.4.4.6.4.8.1c.4 0 .8 0 1-.2.3-.2.5-.4.5-.8l-.2-.5-.7-.4-1.4-.3a6 6 0 0 1-1.5-.6c-.4-.2-.7-.4-.9-.8a2.2 2.2 0 0 1 .1-2.3c.3-.4.6-.7 1.1-1 .5-.2 1.1-.3 1.9-.3.6 0 1 0 1.5.2a3.4 3.4 0 0 1 1.7 1.2l.2.6v.3h-1.7l-.5-.4a2 2 0 0 0-1.2-.4c-.4 0-.8 0-1 .2-.2.2-.3.4-.3.7 0 .2 0 .3.2.5l.6.4 1.4.3c.7.1 1.3.3 1.7.6.4.2.7.5.9.9.2.3.3.6.3 1 0 .5-.2 1-.5 1.3-.3.4-.7.7-1.2 1-.6.2-1.3.3-2 .3Zm9-.2c-.6 0-1.2-.1-1.6-.3-.4-.3-.8-.6-1-1-.2-.5-.3-1-.3-1.7v-3.6h-1.3l-.2-.1-.1-.3v-1.2l.3-.1h1.3V46l.1-.2.3-.2h1.3c.1 0 .2 0 .3.2V48.7h2.4v1.6h-2.3v3.5c0 .5 0 .8.2 1 .2.3.4.4.8.4h1.1c.1 0 .2 0 .3.2l.1.2v1l-.1.3-.3.1h-1.3Zm5.5.2c-.5 0-1-.1-1.5-.4a3 3 0 0 1-1-.8c-.3-.4-.4-.8-.4-1.3 0-.7.3-1.3.9-1.8.6-.4 1.4-.7 2.4-.9l2.2-.3v-.3c0-.5-.1-.8-.4-1-.2-.3-.6-.4-1.1-.4-.4 0-.7 0-1 .2l-.5.6c0 .2-.2.2-.3.2h-1.6v-.3l.1-.6.7-.7c.2-.3.6-.5 1-.6a5 5 0 0 1 3.3 0c.5.1.8.4 1.1.6.3.3.5.6.6 1l.2 1.2v5.3l-.4.1h-1.3l-.3-.1V56l-.6.6a3.2 3.2 0 0 1-2 .6Zm.6-1.6c.4 0 .7 0 1-.2l.7-.7c.2-.4.3-.8.3-1.3V53l-1.6.3c-.6.1-1.1.3-1.4.5-.3.2-.5.4-.5.8 0 .2 0 .4.2.6l.6.3.7.1Zm6.5 1.4-.2-.1-.1-.3v-7.8l.3-.1H1353.4l.1.4v.6c.3-.3.6-.6 1-.7.4-.2.8-.3 1.3-.3h1v1.8l-.3.1h-1.2c-.5 0-1 .1-1.2.4-.3.3-.4.7-.4 1.2v4.4c0 .1 0 .2-.2.3l-.3.1h-1.4Zm10.1 0c-.6 0-1.2-.1-1.6-.3-.5-.3-.8-.6-1-1a4 4 0 0 1-.3-1.7v-3.6h-1.3l-.3-.1v-1.5l.3-.1h1.3V45.8l.4-.2h1.3s.2 0 .2.2l.1.2v2.7h2.3l.1.4v1.2h-2.4v3.5c0 .5.1.8.3 1 .1.3.4.4.8.4h1.1c.1 0 .2 0 .3.2v1.5l-.3.1h-1.3Zm6.7.2c-1.2 0-2.1-.4-2.8-1-.7-.7-1.1-1.7-1.1-3a4.2 4.2 0 0 1 0-.8c0-.8.2-1.5.5-2 .3-.6.8-1 1.3-1.4.6-.3 1.3-.5 2-.5a4 4 0 0 1 2.3.6c.5.3 1 .8 1.3 1.5.3.6.4 1.3.4 2.1v.7h-5.7v.1l.2 1.1.6.8c.3.2.6.3 1 .3.3 0 .5 0 .7-.2a2.1 2.1 0 0 0 .8-.6l.2-.2h1.9l.1.3c0 .2 0 .4-.3.6a3 3 0 0 1-.7.7c-.3.3-.7.5-1.1.6-.5.2-1 .3-1.6.3Zm-1.8-5h3.6V52c0-.4-.1-.8-.3-1.1 0-.3-.3-.6-.5-.8l-1-.2a1.6 1.6 0 0 0-1.6 1l-.2 1v.1Zm10.5 5-1.5-.3a3 3 0 0 1-1-.8l-.6-1.2-.3-1.5v-1.1l.3-1.5.6-1.2 1-.8 1.5-.3a3.2 3.2 0 0 1 2.5 1v-3.7l.4-.2h1.3c.1 0 .2 0 .3.2l.1.2v10.6l-.1.3-.3.1h-1.2l-.3-.1-.1-.3V56a3 3 0 0 1-1 .8c-.5.3-1 .4-1.6.4Zm.6-1.8c.5 0 .8 0 1-.3l.7-.7.2-1v-1.2a2.2 2.2 0 0 0-.8-1.7c-.3-.2-.7-.3-1-.3-.5 0-.9.1-1.2.3l-.5.8-.2 1v1c0 .4 0 .8.2 1 .1.4.3.7.5.9.3.2.7.2 1.1.2Z"/></g><defs><clipPath id="a"><path fill="#fff" d="M0 0h1440v900H0z"/></clipPath><clipPath id="b"><path fill="#fff" d="M167 336h742v554H167z"/></clipPath><clipPath id="c"><path fill="#fff" d="M167 793.3h737.2v24.2H167z"/></clipPath><clipPath id="d"><path fill="#fff" d="M183 481.8h710v24H183z"/></clipPath><clipPath id="g"><path fill="#fff" d="M167 849.7h185.5V890H167z"/></clipPath><clipPath id="i"><path fill="#fff" d="M381.2 849.7h185.5V890H381.2z"/></clipPath><filter id="e" width="319.2" height="86.4" x="151" y="686.6" color-interpolation-filters="sRGB" filterUnits="userSpaceOnUse"><feFlood flood-opacity="0" result="BackgroundImageFix"/><feColorMatrix in="SourceAlpha" result="hardAlpha" values="0 0 0 0 0 0 0 0 0 0 0 0 0 0 0 0 0 0 127 0"/><feOffset dy="4"/><feGaussianBlur stdDeviation="8"/><feColorMatrix values="0 0 0 0 0.701961 0 0 0 0 0.752941 0 0 0 0 0.905882 0 0 0 1 0"/><feBlend in2="BackgroundImageFix" result="effect1_dropShadow_0_3198"/><feBlend in="SourceGraphic" in2="effect1_dropShadow_0_3198" result="shape"/></filter><filter id="h" width="217.5" height="72.3" x="151" y="837.7" color-interpolation-filters="sRGB" filterUnits="userSpaceOnUse"><feFlood flood-opacity="0" result="BackgroundImageFix"/><feColorMatrix in="SourceAlpha" result="hardAlpha" values="0 0 0 0 0 0 0 0 0 0 0 0 0 0 0 0 0 0 127 0"/><feOffset dy="4"/><feGaussianBlur stdDeviation="8"/><feColorMatrix values="0 0 0 0 0.701961 0 0 0 0 0.752941 0 0 0 0 0.905882 0 0 0 0.32 0"/><feBlend in2="BackgroundImageFix" result="effect1_dropShadow_0_3198"/><feBlend in="SourceGraphic" in2="effect1_dropShadow_0_3198" result="shape"/></filter><filter id="j" width="217.5" height="72.3" x="365.2" y="837.7" color-interpolation-filters="sRGB" filterUnits="userSpaceOnUse"><feFlood flood-opacity="0" result="BackgroundImageFix"/><feColorMatrix in="SourceAlpha" result="hardAlpha" values="0 0 0 0 0 0 0 0 0 0 0 0 0 0 0 0 0 0 127 0"/><feOffset dy="4"/><feGaussianBlur stdDeviation="8"/><feColorMatrix values="0 0 0 0 0.701961 0 0 0 0 0.752941 0 0 0 0 0.905882 0 0 0 0.32 0"/><feBlend in2="BackgroundImageFix" result="effect1_dropShadow_0_3198"/><feBlend in="SourceGraphic" in2="effect1_dropShadow_0_3198" result="shape"/></filter><linearGradient id="f" x1="310.6" x2="330.5" y1="780.2" y2="675.2" gradientUnits="userSpaceOnUse"><stop stop-color="#4F8AFF"/><stop offset="1" stop-color="#4B5EFF"/></linearGradient><linearGradient id="k" x1="1339.5" x2="1361" y1="92" y2="18.3" gradientUnits="userSpaceOnUse"><stop stop-color="#4F8AFF"/><stop offset="1" stop-color="#4B5EFF"/></linearGradient></defs></svg>